<svg xmlns="http://www.w3.org/2000/svg" style="background-color:white;"><path d="M 381,206 381,207 382,207 382,206 383,206 383,207 384,207 384,206 385,206 385,207 386,207 386,206 387,206 387,207 388,207 388,206 389,206 389,207 390,207 390,206 391,206 391,207 392,207 392,206 393,207 394,207 395,207 396,207 397,207 397,208 398,208 398,209 398,210 398,211 398,212 398,213 397,213 397,214 397,215 397,216 397,217 398,217 399,217 399,218 400,218 401,218 401,219 402,219 402,220 403,220 403,221 403,222 403,223 403,224 403,225 403,226 403,227 403,228 403,229 403,230 403,231 403,232 403,233 404,227 404,226 404,225 380,207 379,207 378,207 377,207 376,207 375,207 374,207 373,207 372,207 372,208 371,208 371,207 370,207 370,208 369,208 369,207 368,207 368,208 367,208 367,207 366,207 366,208 365,208 365,207 364,207 364,208 363,208 363,207 362,207 362,208 361,208 361,207 360,207 360,208 359,208 359,207 358,207 358,208 357,208 357,207 356,207 356,208 355,208 354,208 353,208 352,208 351,208 350,208 349,208 348,208 347,208 347,209 346,209 346,208 345,208 345,209 344,209 344,208 343,208 343,209 342,209 342,208 341,208 341,209 340,209 340,208 339,208 339,209 338,209 338,208 337,208 337,209 336,209 336,208 335,208 335,209 334,209 334,208 333,208 333,209 332,209 332,208 331,209 330,209 329,209 328,209 327,209 327,210 326,210 326,211 326,212 326,213 326,214 326,215 326,216 326,217 326,218 326,219 326,220 326,221 326,222 326,223 326,224 326,225 326,226 326,227 326,228 326,229 326,230 326,231 326,232 326,233 326,234 326,235 326,236 326,237 326,238 326,239 326,240 326,241 326,242 326,243 326,244 326,245 326,246 326,247 326,248 326,249 326,250 326,251 326,252 326,253 326,254 326,255 327,255 327,256 327,257 327,258 327,259 327,260 327,261 327,262 327,263 327,264 327,265 327,266 327,267 327,268 327,269 327,270 327,271 327,272 327,273 327,274 327,275 327,276 327,277 327,278 327,279 327,280 327,281 327,282 328,282 328,283 328,284 328,285 328,286 328,287 328,288 328,289 328,290 328,291 329,291 329,292 329,293 329,294 329,295 330,295 331,295 332,295 333,295 333,296 334,296 334,295 335,295 335,296 336,296 336,295 337,295 337,296 338,296 338,295 339,295 339,296 340,295 341,295 342,295 343,295 344,295 345,295 346,295 347,295 348,295 348,294 349,294 349,295 350,294 351,294 352,294 353,294 354,294 355,294 356,294 357,294 358,294 358,293 359,293 360,293 361,293 362,293 363,293 364,293 365,293 366,293 367,293 367,292 368,292 368,293 369,293 369,292 370,292 370,293 371,292 372,292 373,292 374,292 375,292 376,292 377,292 378,292 328,281 328,280 328,279 328,278 328,277 328,276 328,275 328,274 328,273 328,272 328,271 328,270 328,269 328,268 328,267 328,266 328,265 328,264 327,254 327,253 327,252 327,251 327,250 327,249 327,248 327,247 327,246 327,245 327,244 327,243 327,242 327,241 327,240 325,231 325,230 325,229 325,228 325,227 325,226 325,225 325,224 325,223 325,222 325,221 325,220 325,219 325,218 325,217 325,216 325,215 325,214 " fill="none" stroke="black"/><path d="M 302,209 302,210 303,210 303,209 304,209 304,210 305,210 305,209 306,209 306,210 307,210 307,209 308,209 308,210 309,210 309,209 310,209 310,210 311,210 311,209 312,209 312,210 313,210 313,209 314,210 315,210 316,210 317,210 317,211 317,212 317,213 317,214 318,214 318,215 318,216 318,217 318,218 318,219 318,220 318,221 318,222 318,223 318,224 318,225 318,226 318,227 318,228 318,229 318,230 318,231 318,232 319,232 319,233 319,234 319,235 319,236 319,237 319,238 319,239 319,240 319,241 319,242 319,243 319,244 319,245 319,246 319,247 319,248 319,249 319,250 319,251 319,252 319,253 319,254 319,255 319,256 319,257 319,258 319,259 319,260 320,260 320,261 320,262 320,263 320,264 320,265 320,266 320,267 320,268 320,269 320,270 320,271 320,272 320,273 320,274 320,275 320,276 320,277 320,278 320,279 320,280 320,281 320,282 320,283 320,284 320,285 320,286 321,286 321,287 321,288 321,289 321,290 321,291 321,292 321,293 321,294 321,295 321,296 320,296 319,296 318,296 317,296 316,296 316,297 315,297 315,296 314,296 314,297 313,297 313,296 312,297 311,297 310,297 309,297 308,297 307,297 306,297 305,297 304,297 304,298 303,298 303,297 302,297 302,298 301,298 301,297 300,297 300,298 299,298 299,297 298,297 298,298 297,298 297,297 296,297 296,298 295,298 295,297 294,297 294,298 293,298 293,297 292,297 292,298 291,298 291,297 290,297 290,298 289,298 289,297 288,297 288,298 287,298 287,297 286,297 286,298 285,298 285,297 284,297 284,298 283,298 283,297 282,297 282,298 281,298 281,297 280,297 280,298 279,298 279,297 278,297 278,298 277,298 277,297 276,297 276,298 275,298 274,298 273,298 272,298 271,298 271,297 270,297 270,296 270,295 321,285 321,284 321,283 321,282 321,281 321,280 321,279 321,278 321,277 321,276 321,275 321,274 321,273 321,272 321,271 321,270 321,269 320,259 320,258 320,257 320,256 320,255 320,254 320,253 320,252 320,251 320,250 320,249 320,248 320,247 320,246 320,245 320,244 320,243 320,242 320,241 319,231 319,230 319,229 319,228 319,227 319,226 319,225 319,224 319,223 301,210 300,210 299,210 298,210 297,210 296,210 295,210 294,210 293,210 292,210 291,210 290,210 289,210 288,210 288,211 287,211 287,212 287,213 286,213 286,214 285,214 285,215 284,215 284,216 283,216 283,217 282,217 282,218 282,219 " fill="none" stroke="black"/><path d="M 274,210 275,210 275,211 276,211 276,212 276,213 276,214 275,214 275,215 275,216 274,216 274,217 273,217 273,218 272,218 272,219 271,219 271,220 271,221 270,221 270,222 269,222 269,223 268,223 268,224 267,224 267,225 266,225 266,226 266,227 265,227 265,228 264,228 264,229 264,230 263,230 263,231 262,231 262,232 261,232 261,233 260,233 260,234 260,235 259,235 259,236 258,236 258,237 257,237 257,238 256,238 256,239 255,239 255,240 254,240 254,241 253,241 253,242 253,243 252,243 252,244 251,244 251,245 251,246 250,246 249,246 249,247 248,247 248,248 247,248 247,249 247,250 246,250 246,251 245,251 245,252 244,252 244,253 244,254 243,254 243,255 242,255 242,256 241,256 241,257 241,258 240,258 240,259 239,259 239,260 238,260 238,261 238,262 237,262 237,263 236,263 236,264 235,264 235,265 234,265 234,266 233,266 233,267 233,268 232,268 232,269 232,270 231,270 231,271 230,271 230,272 229,272 229,273 228,273 228,274 227,274 227,275 226,275 226,276 226,277 225,277 225,278 224,278 224,279 223,279 223,280 222,280 222,281 221,281 221,282 220,282 220,283 219,283 219,284 219,285 218,285 218,286 217,286 217,287 216,287 216,288 216,289 215,289 214,289 213,289 212,289 211,289 225,276 240,257 243,253 " fill="none" stroke="black"/><path d="M 256,211 256,212 257,212 257,211 258,211 258,212 259,212 259,211 260,211 260,212 261,212 261,211 262,211 262,212 263,212 263,211 264,211 264,212 265,212 265,211 266,211 266,212 267,212 267,211 268,211 268,212 269,211 270,211 271,211 272,211 273,211 255,212 254,212 253,212 252,212 251,212 250,212 249,212 248,212 247,212 247,213 246,213 246,212 245,212 245,213 244,213 244,212 243,212 243,213 242,213 242,212 241,212 241,213 240,213 240,212 239,212 239,213 238,213 238,212 237,212 237,213 236,213 236,212 235,212 235,213 234,213 234,212 233,212 233,213 232,213 232,212 231,212 231,213 230,213 230,212 229,212 229,213 228,213 228,212 227,212 227,213 226,213 226,212 225,212 225,213 224,213 224,212 223,212 223,213 222,213 222,212 221,212 221,213 220,213 219,213 218,213 217,213 216,213 215,213 214,213 213,213 212,213 212,214 211,214 211,213 210,213 210,214 209,214 209,213 208,213 208,214 207,214 207,213 206,213 206,214 205,214 205,213 204,213 204,214 203,214 203,213 202,213 202,214 201,214 201,213 200,213 200,214 199,214 199,213 198,213 198,214 197,214 197,213 196,214 195,214 194,214 193,214 192,214 191,214 190,214 " fill="none" stroke="black"/><path d="M 185,215 185,216 184,216 183,216 183,217 183,218 182,218 182,219 181,219 180,219 180,220 179,220 179,221 178,221 178,222 178,223 178,224 178,225 178,226 177,226 177,227 177,228 177,229 177,230 177,231 182,217 186,215 187,215 188,215 189,215 " fill="none" stroke="black"/><path d="M 281,220 281,221 280,221 280,222 279,222 278,222 278,223 278,224 277,224 277,225 276,225 276,226 275,226 275,227 274,227 274,228 274,229 273,229 273,230 272,230 272,231 271,231 271,232 270,232 270,233 269,233 269,234 269,235 268,235 268,236 267,236 267,237 266,237 266,238 265,238 265,239 264,239 264,240 264,241 263,241 263,242 262,242 262,243 261,243 261,244 261,245 260,245 260,246 259,246 259,247 258,247 257,247 257,248 257,249 256,249 256,250 256,251 256,252 256,253 256,254 " fill="none" stroke="black"/><path d="M 176,232 176,233 176,234 175,234 175,235 175,236 175,237 175,238 174,238 174,239 174,240 174,241 174,242 174,243 174,244 174,245 174,246 174,247 174,248 174,249 174,250 174,251 174,252 174,253 174,254 174,255 174,256 174,257 174,258 173,252 173,251 173,250 173,249 173,248 173,247 173,246 173,245 " fill="none" stroke="black"/><path d="M 402,234 402,235 402,236 402,237 402,238 402,239 " fill="none" stroke="black"/><path d="M 401,240 401,241 401,242 401,243 401,244 401,245 401,246 401,247 401,248 401,249 401,250 401,251 401,252 401,253 401,254 401,255 401,256 401,257 401,258 401,259 401,260 401,261 401,262 401,263 401,264 401,265 401,266 401,267 401,268 401,269 401,270 401,271 401,272 401,273 401,274 401,275 401,276 401,277 401,278 401,279 401,280 402,280 402,281 403,281 403,282 404,282 404,283 404,284 404,285 404,286 404,287 404,288 403,288 402,288 402,289 401,289 400,289 399,289 398,289 397,289 397,290 396,290 396,289 395,289 395,290 394,290 393,290 392,290 391,290 390,290 389,290 388,290 387,290 400,276 400,275 400,274 400,273 400,272 400,251 400,250 400,249 400,248 " fill="none" stroke="black"/><path d="M 257,255 257,256 257,257 " fill="none" stroke="black"/><path d="M 258,258 258,259 258,260 259,260 259,261 260,261 260,262 260,263 260,264 260,265 261,265 261,266 261,267 261,268 261,269 261,270 262,270 262,271 262,272 262,269 " fill="none" stroke="black"/><path d="M 175,259 175,260 175,261 176,261 176,262 176,263 177,263 177,264 177,265 178,265 178,266 178,267 179,267 179,268 179,269 180,269 180,270 181,270 181,271 181,272 182,272 182,273 183,273 183,274 184,274 184,275 185,275 185,274 186,275 186,276 187,276 187,277 188,277 188,278 189,278 189,279 190,279 191,279 191,280 192,280 192,281 193,281 194,281 194,282 195,282 196,282 196,283 197,283 198,283 198,284 199,284 200,284 200,285 201,285 202,285 202,286 203,286 204,286 " fill="none" stroke="black"/><path d="M 246,260 246,261 246,262 245,262 245,263 245,264 244,264 244,265 243,265 243,266 242,266 242,267 242,268 241,268 241,269 240,269 240,270 240,271 239,271 239,272 238,272 238,273 237,273 237,274 236,274 236,275 247,260 248,260 249,260 250,260 250,261 251,261 251,262 251,263 251,264 " fill="none" stroke="black"/><path d="M 252,265 252,266 252,267 252,268 253,268 253,269 253,270 254,270 254,271 254,272 253,267 " fill="none" stroke="black"/><path d="M 255,273 255,274 255,275 255,276 256,276 256,277 256,278 257,278 257,279 257,280 " fill="none" stroke="black"/><path d="M 263,273 263,274 263,275 263,276 264,276 264,277 264,278 264,275 " fill="none" stroke="black"/><path d="M 235,276 235,277 235,278 234,278 234,279 233,279 233,280 232,280 232,281 231,281 231,282 230,282 230,283 230,284 229,284 229,285 228,285 228,286 227,286 227,287 226,287 226,288 225,288 225,289 224,289 223,289 223,290 223,291 223,292 224,292 224,293 225,293 226,293 227,293 228,293 229,293 230,293 231,293 " fill="none" stroke="black"/><path d="M 265,279 265,280 265,281 " fill="none" stroke="black"/><path d="M 258,281 258,282 258,283 258,284 259,284 259,285 259,286 259,287 259,288 260,288 260,289 260,290 260,291 260,292 261,292 261,293 261,294 262,294 262,295 262,296 261,296 261,297 260,297 259,297 258,297 " fill="none" stroke="black"/><path d="M 266,282 266,283 266,284 266,285 266,286 " fill="none" stroke="black"/><path d="M 205,287 206,287 207,287 207,288 208,288 209,288 210,288 " fill="none" stroke="black"/><path d="M 267,287 267,288 267,289 268,289 268,290 269,290 269,291 269,292 269,293 269,294 " fill="none" stroke="black"/><path d="M 379,291 380,291 381,291 382,291 383,291 384,291 385,291 386,291 " fill="none" stroke="black"/><path d="M 232,294 233,294 234,294 235,294 236,294 237,294 237,295 238,295 239,295 240,295 241,295 242,295 243,295 244,295 244,296 245,296 245,295 246,295 246,296 247,296 247,295 248,296 249,296 250,296 251,296 252,296 253,296 254,296 255,296 256,296 256,297 257,296 " fill="none" stroke="black"/><path d="M 278,325 278,326 278,327 278,328 278,329 279,329 280,329 280,328 281,328 281,327 281,326 280,326 280,325 279,325 " fill="none" stroke="black"/></svg>