<?xml version="1.0"?>
<svg width="300" height="300" xmlns="http://www.w3.org/2000/svg" xmlns:svg="http://www.w3.org/2000/svg">
 <g class="layer">
  <title>Layer 1</title>
  <path d="m274,60l-20.71,-34.86l-80.86,-5.57c-84.1,27.05 -31.76,68.38 -39.43,84.71l-82.43,-40.43l-22.29,42l35.71,128.14l99,35l29,-6l62,-26l20,-3l0,-174z" fill="none" id="path1" stroke="black" stroke-width="2"/>
  <path d="m85.43,133.86l24.57,54.14l-20.86,20l30.86,-16l5.86,40l4.14,-37l11,2l15,5l14,7l21,16l4,5l2,0l42,-39l4,-5l-33,-42l-5,-3l-14,-5l-29.57,-46.14l-76,44z" fill="none" id="path2" stroke="black" stroke-width="2"/>
  <path d="m216.71,46.57l4.29,84.43l41,0l0,-38l-45.29,-46.43z" fill="none" id="path3" stroke="black" stroke-width="2"/>
 </g>
</svg>