<svg xmlns="http://www.w3.org/2000/svg" style="background-color:white;"><path d="M 300,185 300,186 299,186 299,187 298,187 298,188 297,188 297,189 297,190 296,190 296,191 295,191 295,192 294,192 294,193 293,193 293,194 293,195 292,195 292,196 291,196 291,197 290,197 290,198 289,198 289,199 289,200 288,200 288,201 287,201 287,202 286,202 286,203 285,203 285,204 284,204 284,205 284,206 283,206 283,207 282,207 282,208 281,208 281,209 280,209 280,210 279,210 278,210 278,211 277,211 276,211 276,212 275,212 275,213 275,214 283,205 288,199 292,194 296,189 301,185 302,185 303,185 304,185 304,186 305,186 305,187 305,188 305,189 304,189 304,190 303,190 303,191 303,192 302,192 302,193 301,193 301,194 300,194 300,195 300,196 299,196 299,197 298,197 298,198 297,198 297,199 297,200 296,200 296,201 295,201 295,202 294,202 294,203 293,203 293,204 292,204 292,205 292,206 291,206 291,207 290,207 290,208 289,208 289,209 289,210 289,211 288,211 288,212 287,212 287,213 286,213 286,214 286,215 285,215 285,216 284,216 284,217 283,217 283,218 283,219 283,220 283,221 296,199 299,195 " fill="none" stroke="black"/><path d="M 375,207 376,207 " fill="none" stroke="black"/><path d="M 396,207 396,208 397,208 397,207 398,208 398,209 398,210 397,210 397,211 396,211 396,210 395,210 395,209 395,208 " fill="none" stroke="black"/><path d="M 373,208 373,209 373,210 374,210 374,208 " fill="none" stroke="black"/><path d="M 377,208 378,208 378,209 378,210 377,210 " fill="none" stroke="black"/><path d="M 343,210 344,210 344,211 345,211 345,212 345,213 344,213 344,214 343,214 " fill="none" stroke="black"/><path d="M 300,211 300,212 300,213 301,213 301,214 302,214 303,214 303,213 304,213 304,212 304,211 303,211 302,211 301,211 " fill="none" stroke="black"/><path d="M 329,211 329,212 330,211 331,211 331,212 " fill="none" stroke="black"/><path d="M 342,211 342,212 342,213 " fill="none" stroke="black"/><path d="M 375,211 376,211 " fill="none" stroke="black"/><path d="M 328,213 " fill="none" stroke="black"/><path d="M 332,213 " fill="none" stroke="black"/><path d="M 329,214 329,215 330,215 331,215 331,214 " fill="none" stroke="black"/><path d="M 242,215 242,216 242,217 242,218 243,218 244,218 245,218 246,218 246,217 246,216 245,216 245,215 244,215 243,215 " fill="none" stroke="black"/><path d="M 274,215 274,216 274,217 273,217 273,218 272,218 272,219 271,219 270,219 270,220 270,221 269,221 269,222 268,222 268,223 267,223 267,224 266,224 266,225 266,226 265,226 265,227 264,227 264,228 264,229 263,229 263,230 262,230 262,231 261,231 261,232 " fill="none" stroke="black"/><path d="M 399,218 399,219 399,220 399,221 400,221 401,221 402,221 402,220 402,219 402,218 401,218 400,218 " fill="none" stroke="black"/><path d="M 315,219 315,220 316,220 316,221 314,220 314,221 " fill="none" stroke="black"/><path d="M 181,220 " fill="none" stroke="black"/><path d="M 179,221 " fill="none" stroke="black"/><path d="M 182,221 183,221 184,221 184,222 185,222 185,223 185,224 184,224 184,225 183,225 183,226 183,227 " fill="none" stroke="black"/><path d="M 180,222 180,223 180,224 180,225 180,226 180,227 180,228 181,223 " fill="none" stroke="black"/><path d="M 284,222 284,223 284,224 284,225 284,226 283,226 282,226 282,225 281,225 281,224 281,223 280,223 279,223 279,224 278,224 278,225 278,226 278,227 277,227 277,228 276,228 276,229 275,229 275,230 274,230 273,230 273,231 272,231 272,232 271,232 271,233 270,233 270,234 270,235 269,235 269,236 268,236 268,237 267,237 267,238 266,238 266,239 265,239 265,240 264,240 264,241 264,242 263,242 263,243 262,243 262,244 262,245 261,245 260,245 260,246 259,246 259,247 258,247 258,248 257,248 257,249 257,250 257,251 257,252 257,253 " fill="none" stroke="black"/><path d="M 313,222 " fill="none" stroke="black"/><path d="M 317,222 " fill="none" stroke="black"/><path d="M 314,223 314,224 315,224 315,225 316,224 316,223 " fill="none" stroke="black"/><path d="M 260,224 260,225 260,226 261,224 262,224 263,224 " fill="none" stroke="black"/><path d="M 184,228 184,229 184,230 184,231 184,232 183,232 182,232 181,232 181,231 181,230 181,229 " fill="none" stroke="black"/><path d="M 258,228 258,229 257,229 257,230 257,231 258,231 259,231 259,228 " fill="none" stroke="black"/><path d="M 260,229 " fill="none" stroke="black"/><path d="M 251,231 251,232 252,232 252,231 253,232 253,233 253,234 252,234 252,235 251,235 251,234 250,234 250,233 250,232 " fill="none" stroke="black"/><path d="M 398,231 398,232 399,232 399,233 400,232 401,232 401,231 402,232 402,233 402,234 402,235 401,235 400,235 400,234 " fill="none" stroke="black"/><path d="M 332,232 332,233 333,233 333,234 331,233 331,234 " fill="none" stroke="black"/><path d="M 260,233 260,234 259,234 259,235 258,235 258,236 257,236 257,237 257,238 256,238 256,239 255,239 255,240 254,240 254,241 253,241 253,242 252,242 252,243 251,243 251,244 251,245 250,245 256,237 " fill="none" stroke="black"/><path d="M 330,235 330,236 330,237 " fill="none" stroke="black"/><path d="M 334,235 334,236 334,237 " fill="none" stroke="black"/><path d="M 331,238 331,239 332,239 332,240 333,239 333,238 " fill="none" stroke="black"/><path d="M 400,240 400,241 399,241 399,242 399,243 399,244 399,245 399,246 400,246 401,246 401,245 402,245 402,244 402,243 402,242 402,241 402,240 401,240 " fill="none" stroke="black"/><path d="M 269,241 270,241 271,241 " fill="none" stroke="black"/><path d="M 268,242 268,243 268,244 269,244 270,244 271,244 271,243 272,243 272,242 " fill="none" stroke="black"/><path d="M 247,245 " fill="none" stroke="black"/><path d="M 317,245 317,246 317,247 317,248 318,248 319,248 319,247 319,246 319,245 318,245 " fill="none" stroke="black"/><path d="M 246,246 " fill="none" stroke="black"/><path d="M 248,246 249,246 " fill="none" stroke="black"/><path d="M 182,247 182,248 183,247 184,247 184,248 " fill="none" stroke="black"/><path d="M 245,247 245,248 245,249 245,250 245,251 244,251 244,252 243,252 243,253 243,254 242,254 242,255 241,255 241,256 240,256 240,257 240,258 239,258 239,259 238,259 238,260 237,260 237,261 237,262 236,262 236,263 235,263 235,264 234,264 234,265 233,265 233,266 232,266 232,267 " fill="none" stroke="black"/><path d="M 263,247 263,248 264,248 264,249 264,250 262,248 " fill="none" stroke="black"/><path d="M 181,249 " fill="none" stroke="black"/><path d="M 185,249 " fill="none" stroke="black"/><path d="M 261,249 " fill="none" stroke="black"/><path d="M 182,250 182,251 183,251 184,251 184,250 " fill="none" stroke="black"/><path d="M 260,250 260,251 " fill="none" stroke="black"/><path d="M 238,251 238,252 238,253 238,254 239,251 240,251 " fill="none" stroke="black"/><path d="M 263,251 263,252 263,253 262,253 261,253 261,252 " fill="none" stroke="black"/><path d="M 400,251 400,252 401,252 402,252 402,253 402,254 402,255 402,256 402,257 402,258 402,259 402,260 402,261 402,262 401,262 400,262 400,261 400,260 399,260 399,259 399,258 399,257 399,256 399,255 399,254 399,253 399,252 " fill="none" stroke="black"/><path d="M 258,254 258,255 258,256 " fill="none" stroke="black"/><path d="M 259,257 259,258 260,258 260,259 260,260 261,260 261,261 261,262 " fill="none" stroke="black"/><path d="M 332,259 332,260 333,260 333,261 331,260 331,261 " fill="none" stroke="black"/><path d="M 245,260 245,261 245,262 246,260 247,260 248,260 248,261 248,262 " fill="none" stroke="black"/><path d="M 330,262 330,263 330,264 329,264 329,265 329,266 328,266 328,267 328,268 328,269 328,270 329,270 330,270 330,269 331,269 331,268 331,267 330,267 " fill="none" stroke="black"/><path d="M 334,262 334,263 " fill="none" stroke="black"/><path d="M 262,263 262,264 262,265 " fill="none" stroke="black"/><path d="M 245,264 245,265 244,265 244,266 243,266 243,267 242,267 242,268 242,269 242,270 246,264 247,264 248,264 249,264 250,264 251,264 251,265 251,266 " fill="none" stroke="black"/><path d="M 333,264 333,265 333,266 332,266 " fill="none" stroke="black"/><path d="M 263,266 263,267 263,268 263,269 263,270 263,271 263,272 263,273 264,273 264,274 265,274 265,275 265,276 " fill="none" stroke="black"/><path d="M 252,267 252,268 252,269 253,269 253,270 253,271 " fill="none" stroke="black"/><path d="M 399,267 399,268 399,269 399,270 399,271 399,272 399,273 400,273 401,273 402,273 402,272 402,271 402,270 402,269 402,268 402,267 401,267 400,267 " fill="none" stroke="black"/><path d="M 231,268 231,269 231,270 230,270 230,271 229,271 229,272 228,272 228,273 227,273 227,274 227,275 226,275 226,276 225,276 225,277 224,277 224,278 223,278 223,279 222,279 222,280 221,280 221,281 220,281 220,282 219,282 219,283 218,283 218,284 217,284 217,285 217,286 " fill="none" stroke="black"/><path d="M 241,271 241,272 240,272 240,273 239,273 238,273 238,274 237,274 237,275 237,276 236,276 236,277 235,277 235,278 235,279 234,279 234,280 233,280 233,281 232,281 232,282 232,283 231,283 231,284 230,284 230,285 229,285 229,286 228,286 228,287 227,287 227,288 226,288 226,289 225,289 225,290 224,290 224,291 223,291 223,292 222,292 222,293 221,293 220,293 220,294 219,294 219,295 218,295 218,296 218,297 217,297 217,298 217,299 216,299 216,300 216,301 215,301 215,302 214,302 214,303 213,303 213,304 212,304 212,305 211,305 211,306 210,306 210,307 210,308 209,308 209,309 208,309 208,310 207,310 207,311 206,311 206,312 206,313 205,313 205,314 204,314 203,314 203,315 202,315 201,315 200,315 199,315 199,314 198,314 198,313 198,312 198,311 198,310 199,310 199,309 200,309 200,308 201,308 201,307 201,306 202,306 202,307 202,305 203,305 203,304 204,304 204,303 204,302 205,302 205,303 205,301 206,301 206,300 207,300 207,299 208,299 208,298 209,298 209,297 210,297 210,296 210,295 211,295 211,296 211,294 212,294 212,293 213,293 213,292 213,291 214,291 214,290 215,290 215,289 216,289 216,288 216,287 209,307 " fill="none" stroke="black"/><path d="M 317,271 317,272 317,273 317,274 317,275 318,275 319,275 319,274 320,274 320,273 320,272 319,272 319,271 318,271 " fill="none" stroke="black"/><path d="M 331,271 331,272 331,273 331,274 330,273 329,273 329,274 " fill="none" stroke="black"/><path d="M 254,272 254,273 254,274 254,275 " fill="none" stroke="black"/><path d="M 328,272 " fill="none" stroke="black"/><path d="M 190,274 190,275 190,276 190,277 191,277 192,277 192,276 192,275 192,274 191,274 " fill="none" stroke="black"/><path d="M 328,275 328,276 " fill="none" stroke="black"/><path d="M 332,275 332,276 " fill="none" stroke="black"/><path d="M 255,276 255,277 255,278 256,278 256,279 256,280 257,280 257,281 257,282 258,282 258,283 258,284 258,285 258,286 258,287 258,288 258,289 " fill="none" stroke="black"/><path d="M 266,277 266,278 266,279 266,280 267,280 267,281 267,282 267,283 267,284 267,285 " fill="none" stroke="black"/><path d="M 329,277 329,278 330,278 330,279 331,278 331,277 " fill="none" stroke="black"/><path d="M 209,278 209,279 209,280 209,281 210,281 211,281 211,280 211,279 211,278 210,278 " fill="none" stroke="black"/><path d="M 269,278 270,278 271,278 271,279 271,280 271,281 270,281 " fill="none" stroke="black"/><path d="M 213,284 213,285 213,286 213,287 214,287 212,286 212,285 214,284 215,284 " fill="none" stroke="black"/><path d="M 254,284 254,285 " fill="none" stroke="black"/><path d="M 372,285 373,285 374,285 375,285 376,285 " fill="none" stroke="black"/><path d="M 268,286 268,287 268,288 268,289 269,289 269,290 269,291 270,291 270,292 270,293 270,294 270,295 270,296 270,297 " fill="none" stroke="black"/><path d="M 370,286 370,287 370,288 371,288 371,286 " fill="none" stroke="black"/><path d="M 377,286 378,286 378,287 378,288 377,288 379,287 " fill="none" stroke="black"/><path d="M 372,289 373,289 374,289 375,289 376,289 " fill="none" stroke="black"/><path d="M 259,290 259,291 259,292 260,292 260,293 261,293 261,294 261,295 262,295 262,296 262,297 263,297 263,298 263,299 264,299 264,300 264,301 " fill="none" stroke="black"/><path d="M 245,292 " fill="none" stroke="black"/><path d="M 288,292 " fill="none" stroke="black"/><path d="M 338,292 338,293 338,294 339,294 340,294 340,295 341,295 342,295 342,296 343,296 344,296 344,295 345,295 345,294 345,293 344,293 339,292 340,292 341,292 342,292 343,292 " fill="none" stroke="black"/><path d="M 243,293 243,294 243,295 244,295 244,293 " fill="none" stroke="black"/><path d="M 246,293 247,293 247,294 247,295 246,295 " fill="none" stroke="black"/><path d="M 286,293 286,294 286,295 287,295 285,294 287,293 " fill="none" stroke="black"/><path d="M 289,293 290,293 290,294 290,295 289,295 291,294 " fill="none" stroke="black"/><path d="M 313,293 313,294 312,294 312,295 312,296 313,296 313,297 314,297 314,293 315,293 316,293 317,293 318,293 319,293 319,294 319,295 319,296 318,296 317,296 316,296 315,296 315,295 " fill="none" stroke="black"/><path d="M 245,296 " fill="none" stroke="black"/><path d="M 258,296 " fill="none" stroke="black"/><path d="M 288,296 " fill="none" stroke="black"/><path d="M 271,298 271,299 271,300 271,301 " fill="none" stroke="black"/><path d="M 265,302 265,303 265,304 266,304 266,305 266,306 266,307 267,307 267,308 267,309 267,310 268,310 268,311 268,312 268,313 269,313 269,314 269,315 269,316 270,316 270,317 270,318 " fill="none" stroke="black"/><path d="M 272,302 272,303 272,304 272,305 273,305 273,306 273,307 273,308 " fill="none" stroke="black"/><path d="M 274,309 274,310 274,311 274,312 275,312 275,313 275,314 " fill="none" stroke="black"/><path d="M 276,315 276,316 276,317 277,317 277,318 277,319 277,320 278,320 278,321 278,322 278,323 279,323 279,324 279,325 279,326 280,326 280,327 280,328 " fill="none" stroke="black"/><path d="M 271,319 271,320 271,321 272,321 272,322 272,323 272,324 " fill="none" stroke="black"/><path d="M 273,325 273,326 273,327 273,328 274,328 274,329 274,330 274,331 275,331 275,332 275,333 275,334 275,335 276,335 276,336 276,337 276,338 277,338 277,339 277,340 277,341 278,341 278,342 278,343 274,327 " fill="none" stroke="black"/><path d="M 281,329 281,330 281,331 282,331 282,332 282,333 " fill="none" stroke="black"/><path d="M 283,334 283,335 283,336 283,337 284,337 284,338 284,339 " fill="none" stroke="black"/><path d="M 285,340 285,341 285,342 285,343 286,343 286,344 286,345 286,342 " fill="none" stroke="black"/><path d="M 279,344 279,345 279,346 280,346 280,347 280,348 280,349 " fill="none" stroke="black"/><path d="M 287,346 287,347 287,348 " fill="none" stroke="black"/><path d="M 288,349 288,350 288,351 288,352 289,352 289,353 289,354 289,355 289,356 289,357 288,357 288,358 287,358 286,358 285,358 284,358 284,357 283,357 283,356 283,355 282,355 282,354 282,353 " fill="none" stroke="black"/><path d="M 281,350 281,351 281,352 " fill="none" stroke="black"/></svg>