<svg xmlns="http://www.w3.org/2000/svg" style="background-color:white;"><path d="M 96,136 97,136 " fill="none" stroke="black"/><path d="M 126,136 " fill="none" stroke="black"/><path d="M 78,137 79,137 80,137 81,137 82,137 83,137 84,137 " fill="none" stroke="black"/><path d="M 94,137 94,138 94,139 95,139 95,137 " fill="none" stroke="black"/><path d="M 98,137 98,138 98,139 99,137 " fill="none" stroke="black"/><path d="M 103,137 104,137 " fill="none" stroke="black"/><path d="M 122,137 122,138 121,138 121,139 121,140 122,140 123,140 124,140 125,140 126,140 120,138 119,138 123,137 124,137 125,137 " fill="none" stroke="black"/><path d="M 127,137 128,137 128,138 128,139 127,139 129,138 " fill="none" stroke="black"/><path d="M 71,138 72,138 " fill="none" stroke="black"/><path d="M 74,138 75,138 76,138 76,139 76,140 77,140 77,138 " fill="none" stroke="black"/><path d="M 85,138 86,138 86,139 86,140 85,140 87,139 " fill="none" stroke="black"/><path d="M 102,138 102,139 102,140 101,140 " fill="none" stroke="black"/><path d="M 105,138 105,139 105,140 106,138 " fill="none" stroke="black"/><path d="M 111,138 112,138 113,138 114,138 115,138 116,138 " fill="none" stroke="black"/><path d="M 6,139 7,139 8,139 9,139 10,139 11,139 12,139 13,139 " fill="none" stroke="black"/><path d="M 26,139 27,139 " fill="none" stroke="black"/><path d="M 39,139 40,139 41,139 42,139 43,139 44,139 45,139 46,139 47,139 48,139 " fill="none" stroke="black"/><path d="M 65,139 66,139 " fill="none" stroke="black"/><path d="M 68,139 69,139 70,139 70,140 70,141 " fill="none" stroke="black"/><path d="M 73,139 73,140 73,141 74,141 75,141 " fill="none" stroke="black"/><path d="M 109,139 109,140 109,141 110,141 110,139 " fill="none" stroke="black"/><path d="M 117,139 118,139 118,140 118,141 119,141 120,141 117,141 " fill="none" stroke="black"/><path d="M 4,140 4,141 4,142 5,142 3,141 5,140 " fill="none" stroke="black"/><path d="M 14,140 15,140 15,141 15,142 14,142 16,141 " fill="none" stroke="black"/><path d="M 24,140 24,141 24,142 25,142 25,140 " fill="none" stroke="black"/><path d="M 28,140 29,140 30,140 31,140 32,140 33,140 " fill="none" stroke="black"/><path d="M 35,140 36,140 37,140 37,141 37,142 38,142 38,140 " fill="none" stroke="black"/><path d="M 49,140 50,140 50,141 50,142 49,142 51,141 " fill="none" stroke="black"/><path d="M 63,140 63,141 63,142 64,142 62,141 64,140 " fill="none" stroke="black"/><path d="M 67,140 67,141 67,142 68,142 69,142 " fill="none" stroke="black"/><path d="M 96,140 97,140 " fill="none" stroke="black"/><path d="M 34,141 34,142 34,143 35,143 36,143 " fill="none" stroke="black"/><path d="M 78,141 79,141 80,141 81,141 82,141 83,141 84,141 " fill="none" stroke="black"/><path d="M 103,141 104,141 " fill="none" stroke="black"/><path d="M 71,142 72,142 " fill="none" stroke="black"/><path d="M 111,142 112,142 113,142 114,142 115,142 116,142 " fill="none" stroke="black"/><path d="M 6,143 7,143 8,143 9,143 10,143 11,143 12,143 13,143 " fill="none" stroke="black"/><path d="M 26,143 27,143 28,143 29,143 30,143 " fill="none" stroke="black"/><path d="M 39,143 40,143 41,143 42,143 43,143 44,143 45,143 46,143 47,143 48,143 " fill="none" stroke="black"/><path d="M 65,143 66,143 " fill="none" stroke="black"/><path d="M 31,144 32,144 33,144 " fill="none" stroke="black"/></svg>