<svg xmlns="http://www.w3.org/2000/svg" style="background-color:white;"><path d="M 193,445 " fill="none" stroke="black"/><path d="M 191,446 192,446 192,447 192,448 " fill="none" stroke="black"/><path d="M 194,446 195,446 196,446 196,447 197,447 198,447 " fill="none" stroke="black"/><path d="M 186,447 186,448 186,449 187,449 187,450 188,450 188,449 189,449 187,447 " fill="none" stroke="black"/><path d="M 177,448 178,448 179,448 179,449 180,449 180,448 " fill="none" stroke="black"/><path d="M 199,448 200,448 200,449 201,449 201,450 201,451 201,452 200,452 199,452 198,452 198,451 197,451 197,450 196,450 " fill="none" stroke="black"/><path d="M 175,449 175,450 175,451 176,451 176,449 " fill="none" stroke="black"/><path d="M 193,449 194,449 195,449 " fill="none" stroke="black"/><path d="M 181,450 182,450 " fill="none" stroke="black"/><path d="M 179,451 180,451 " fill="none" stroke="black"/><path d="M 177,452 178,452 " fill="none" stroke="black"/><path d="M 199,458 199,459 200,458 201,458 201,459 " fill="none" stroke="black"/><path d="M 198,460 198,461 198,462 " fill="none" stroke="black"/><path d="M 202,460 202,461 202,462 " fill="none" stroke="black"/><path d="M 199,463 199,464 200,464 201,464 201,463 " fill="none" stroke="black"/><path d="M 164,470 164,471 164,472 164,473 165,473 166,473 166,472 166,471 166,470 165,470 " fill="none" stroke="black"/><path d="M 199,470 199,471 200,470 201,470 201,471 201,472 201,473 201,474 201,475 200,475 200,476 199,476 " fill="none" stroke="black"/><path d="M 198,472 198,473 198,474 199,474 " fill="none" stroke="black"/></svg>