<svg xmlns="http://www.w3.org/2000/svg" style="background-color:white;"><path d="M 189,445 " fill="none" stroke="black"/><path d="M 171,446 " fill="none" stroke="black"/><path d="M 184,446 185,446 186,446 187,446 188,446 " fill="none" stroke="black"/><path d="M 190,446 191,446 191,447 191,448 190,448 " fill="none" stroke="black"/><path d="M 194,446 194,447 194,448 195,448 195,446 196,446 197,446 197,447 198,447 " fill="none" stroke="black"/><path d="M 169,447 169,448 170,447 " fill="none" stroke="black"/><path d="M 172,447 173,447 173,448 173,449 173,450 174,450 175,450 176,450 172,450 172,449 171,450 " fill="none" stroke="black"/><path d="M 182,447 183,447 183,448 183,449 " fill="none" stroke="black"/><path d="M 199,448 199,449 200,448 201,448 201,449 " fill="none" stroke="black"/><path d="M 170,449 " fill="none" stroke="black"/><path d="M 186,449 187,449 188,449 189,449 " fill="none" stroke="black"/><path d="M 196,449 197,449 197,450 198,450 198,451 199,451 199,452 199,453 199,454 199,455 " fill="none" stroke="black"/><path d="M 179,450 180,450 181,450 182,450 " fill="none" stroke="black"/><path d="M 184,450 185,450 " fill="none" stroke="black"/><path d="M 202,450 202,451 202,452 202,453 202,454 " fill="none" stroke="black"/><path d="M 163,453 163,454 164,453 " fill="none" stroke="black"/><path d="M 165,454 " fill="none" stroke="black"/><path d="M 162,455 162,456 162,457 162,458 162,459 162,460 162,461 162,462 162,463 162,464 162,465 162,466 162,467 " fill="none" stroke="black"/><path d="M 166,455 166,456 166,457 166,458 166,459 166,460 166,461 166,462 166,463 166,464 166,465 166,466 166,467 " fill="none" stroke="black"/><path d="M 203,455 " fill="none" stroke="black"/><path d="M 200,456 200,457 201,457 202,457 202,456 " fill="none" stroke="black"/><path d="M 163,468 163,469 164,469 165,469 165,468 " fill="none" stroke="black"/><path d="M 166,472 167,472 167,473 168,473 168,474 169,474 170,474 171,474 171,475 172,475 172,476 172,477 173,475 " fill="none" stroke="black"/><path d="M 164,473 164,474 164,475 165,475 165,476 166,476 167,476 167,477 168,477 169,477 165,473 " fill="none" stroke="black"/><path d="M 199,473 199,474 198,474 198,475 197,475 196,475 200,473 201,473 201,474 201,475 201,476 200,476 200,477 199,477 199,478 198,478 197,478 " fill="none" stroke="black"/><path d="M 193,476 193,477 193,478 194,478 195,478 194,476 195,476 " fill="none" stroke="black"/><path d="M 170,478 171,478 " fill="none" stroke="black"/><path d="M 173,478 174,478 175,478 " fill="none" stroke="black"/><path d="M 176,479 " fill="none" stroke="black"/><path d="M 196,479 " fill="none" stroke="black"/></svg>