<svg xmlns="http://www.w3.org/2000/svg" style="background-color:white;"><path d="M 9,1 9,2 8,2 8,3 7,3 7,4 6,4 6,5 5,5 5,6 5,7 4,7 4,8 3,8 3,9 2,9 2,10 1,10 1,11 1,12 4,6 10,1 11,1 12,1 " fill="none" stroke="black"/><path d="M 22,1 23,1 24,1 25,1 26,1 27,1 " fill="none" stroke="black"/><path d="M 32,1 33,1 34,1 35,1 " fill="none" stroke="black"/><path d="M 44,1 45,1 45,2 45,3 45,4 45,5 45,6 45,7 45,8 45,9 45,10 45,11 45,12 45,13 45,14 45,15 45,16 45,17 45,18 45,19 45,20 45,21 45,22 45,23 45,24 45,25 45,26 45,27 44,19 44,18 44,17 44,16 44,15 44,14 44,13 44,12 44,11 44,10 44,9 44,8 " fill="none" stroke="black"/><path d="M 55,1 55,2 54,2 54,3 54,4 54,5 54,6 54,7 54,8 54,9 54,10 54,11 54,12 54,13 54,14 54,15 54,16 54,17 54,18 54,19 54,20 54,21 54,22 54,23 54,24 54,25 54,26 54,27 54,28 54,29 54,30 54,31 54,32 54,33 55,33 55,34 55,35 55,36 55,37 55,38 55,39 56,39 56,40 56,41 56,42 56,43 56,44 56,45 56,46 56,47 56,48 57,48 57,49 57,50 57,51 57,52 57,53 57,54 57,55 57,47 57,46 57,45 55,32 55,31 55,30 55,29 55,28 53,19 53,18 53,17 53,16 53,15 53,14 53,13 53,12 56,1 57,1 58,1 59,1 60,1 60,2 61,2 62,2 63,2 64,2 65,2 66,2 67,2 68,2 69,2 70,2 71,2 72,2 72,1 73,1 73,2 74,2 74,1 75,1 75,2 76,2 76,1 77,1 77,2 78,2 78,1 79,1 79,2 80,2 80,1 81,1 81,2 82,2 82,1 83,1 83,2 84,2 84,1 85,1 85,2 86,2 86,1 87,1 87,2 88,2 88,1 89,1 89,2 90,2 90,1 91,2 92,2 93,2 94,2 95,2 96,2 97,2 98,2 99,2 99,3 100,3 100,2 101,2 101,3 102,3 102,2 103,2 103,3 104,3 104,2 105,2 105,3 106,3 106,2 107,2 107,3 108,3 108,2 109,2 109,3 110,3 110,2 111,2 111,3 112,3 112,2 113,2 113,3 114,3 114,2 115,2 115,3 116,3 116,2 117,2 117,3 118,3 118,2 119,3 120,3 121,3 122,3 123,3 124,3 125,3 126,3 127,3 127,4 128,4 128,3 129,3 129,4 130,4 130,3 131,3 131,4 132,4 132,3 133,3 133,4 134,4 134,3 135,3 135,4 136,4 136,3 137,3 137,4 138,4 138,3 139,3 139,4 140,4 140,3 141,3 142,3 143,3 144,3 145,3 146,3 147,3 148,3 149,3 150,3 150,4 151,4 151,5 151,6 151,7 151,8 151,9 151,10 152,10 152,11 152,12 152,13 152,14 152,15 152,16 152,17 152,18 152,19 152,20 153,20 153,21 153,22 153,23 153,24 153,25 153,26 153,27 153,28 153,29 153,30 153,31 153,32 153,33 153,34 153,35 153,36 153,37 153,38 153,39 153,40 153,41 153,42 153,43 153,44 153,45 154,45 154,46 154,47 154,48 154,49 154,50 154,51 154,52 154,53 154,54 154,55 154,56 154,57 154,58 154,59 154,60 154,61 154,62 155,62 155,63 155,64 155,65 155,66 155,67 155,68 155,69 155,70 155,71 155,72 155,73 155,74 155,75 155,76 155,77 155,78 155,79 155,80 155,81 155,82 155,83 155,84 155,85 155,86 155,87 155,88 155,89 155,90 155,91 155,92 155,93 155,94 155,95 155,96 155,97 155,98 156,98 156,99 156,100 156,101 156,102 156,103 156,104 156,105 156,106 156,107 156,108 156,109 156,110 156,111 156,112 156,113 156,114 156,115 156,116 156,117 156,118 156,119 156,120 156,121 156,122 156,123 156,124 156,125 156,126 156,127 156,128 156,129 157,129 157,130 157,131 157,132 157,133 157,134 157,135 157,136 156,136 157,128 157,127 157,126 157,125 157,124 157,123 157,122 157,121 157,120 157,119 157,118 157,117 157,116 157,115 157,114 157,113 157,112 157,111 157,110 157,109 157,108 157,107 156,97 156,96 156,95 156,94 156,93 156,92 156,91 156,90 156,89 156,88 156,87 156,86 156,85 156,84 156,83 156,82 156,81 156,80 156,79 156,78 156,77 156,76 156,75 156,74 156,73 156,72 156,71 155,61 155,60 155,59 155,58 155,57 155,56 155,55 155,54 154,44 154,43 154,42 154,41 154,40 154,39 154,38 154,37 154,36 154,35 154,34 154,33 154,32 154,31 154,30 154,29 153,19 152,9 " fill="none" stroke="black"/><path d="M 161,1 161,2 161,3 161,4 162,1 " fill="none" stroke="black"/><path d="M 171,1 172,1 173,1 174,1 175,1 176,1 177,1 178,1 179,1 " fill="none" stroke="black"/><path d="M 194,1 195,1 196,1 197,1 198,1 199,1 200,1 201,1 202,1 203,1 204,1 205,1 206,1 207,1 208,1 209,1 210,1 211,1 212,1 213,1 214,1 215,1 216,1 217,1 218,1 219,1 220,1 221,1 222,1 223,1 224,1 225,1 226,1 227,1 228,1 228,2 229,1 230,1 231,1 232,1 233,1 234,1 235,1 236,1 237,1 238,1 239,1 240,1 241,1 242,1 243,1 244,1 245,1 246,1 247,1 248,1 249,1 249,2 250,2 251,2 252,2 253,2 253,3 253,4 253,5 253,6 253,7 253,8 253,9 254,9 254,10 254,11 254,12 254,13 254,14 254,15 254,16 254,17 254,18 254,19 254,20 254,21 254,22 254,23 254,24 254,25 254,26 254,27 254,28 254,29 254,30 254,31 254,32 254,33 254,34 254,35 254,36 254,37 254,38 254,39 254,40 254,41 254,42 254,43 254,44 254,45 254,46 254,47 254,48 254,49 254,50 254,51 254,52 254,53 254,54 254,55 254,56 254,57 254,58 254,59 254,60 254,61 254,62 254,63 254,64 254,65 254,66 254,67 254,68 254,69 254,70 254,71 254,72 254,73 254,74 254,75 254,76 254,77 254,78 254,79 254,80 254,81 254,82 254,83 254,84 254,85 254,86 254,87 254,88 254,89 254,90 254,91 254,92 254,93 254,94 254,95 254,96 254,97 254,98 254,99 254,100 254,101 254,102 254,103 254,104 254,105 254,106 254,107 254,108 254,109 254,110 254,111 254,112 254,113 254,114 254,115 254,116 254,117 254,118 254,119 254,120 255,120 255,121 255,122 255,123 255,124 255,125 255,126 255,127 255,128 255,129 255,130 255,131 255,132 255,133 255,134 255,135 255,136 256,136 256,137 256,138 256,135 256,134 256,133 256,132 256,131 256,130 256,129 255,119 255,118 255,117 255,116 255,115 255,114 255,113 255,112 255,111 255,110 255,109 255,108 255,107 255,106 255,105 255,104 255,103 255,102 255,101 255,100 255,99 255,98 255,97 255,96 255,95 255,94 255,93 255,92 255,91 255,90 255,89 255,88 255,87 255,86 255,85 255,84 255,83 255,82 255,81 255,80 255,79 255,78 255,77 255,76 255,75 255,74 255,73 255,72 255,71 255,70 255,69 255,68 255,67 255,66 255,65 255,64 255,63 255,62 255,61 255,60 255,59 255,58 255,57 255,56 255,55 255,54 255,53 255,52 255,51 255,50 255,49 255,48 255,47 255,46 255,45 255,44 255,43 255,42 255,41 255,40 255,39 255,38 255,37 255,36 255,35 255,34 254,8 254,7 254,6 " fill="none" stroke="black"/><path d="M 260,1 260,2 261,2 261,3 262,2 263,2 263,1 " fill="none" stroke="black"/><path d="M 269,1 269,2 268,2 268,3 267,3 267,4 267,5 266,5 266,6 266,7 265,7 265,8 265,9 265,10 265,11 265,12 265,13 265,14 265,15 265,16 265,17 265,18 265,19 265,20 265,21 265,22 265,23 265,24 265,25 265,26 265,27 265,28 264,28 264,29 264,30 264,31 264,32 264,33 264,34 264,35 264,36 264,37 264,38 264,39 264,40 264,41 264,42 264,43 264,44 264,45 264,46 264,47 264,48 264,49 264,50 264,51 264,52 264,53 264,54 264,55 264,56 264,57 264,58 264,59 264,60 264,61 264,62 264,63 264,64 264,65 264,66 264,67 264,68 264,69 264,70 264,71 264,72 264,73 264,74 264,75 264,76 264,77 264,78 264,79 264,80 264,81 264,82 264,83 264,84 264,85 264,86 264,87 264,88 264,89 264,90 264,91 264,92 264,93 264,94 264,95 264,96 264,97 264,98 264,99 264,100 264,101 264,102 264,103 264,104 264,105 264,106 264,107 264,108 264,109 264,110 264,111 264,112 264,113 264,114 264,115 264,116 264,117 264,118 264,119 264,120 264,121 264,122 264,123 264,124 264,125 264,126 264,127 264,128 264,129 264,130 264,131 264,132 264,133 264,134 264,135 264,136 264,137 264,138 264,139 264,140 264,141 264,142 265,142 265,143 265,144 265,145 265,146 265,147 266,147 267,147 265,141 265,140 265,139 265,138 265,137 265,136 265,135 265,134 265,133 265,132 265,131 265,130 265,129 265,128 265,127 265,126 265,125 263,116 263,115 263,114 263,113 263,112 263,111 263,110 263,109 263,108 263,107 263,106 263,105 263,104 263,103 263,102 263,101 263,100 263,99 263,98 263,97 263,96 263,95 263,94 263,93 263,92 263,91 263,90 263,89 263,88 263,87 263,86 263,85 263,84 263,83 263,82 263,81 263,80 263,79 263,78 263,77 263,76 263,75 263,74 263,73 263,72 263,71 263,70 263,69 263,68 263,67 263,66 263,65 263,64 263,63 263,62 263,61 263,60 263,59 263,58 263,57 263,56 263,55 263,54 263,53 263,52 263,51 263,50 263,49 263,48 263,47 263,46 263,45 263,44 263,43 263,42 263,41 263,40 263,39 263,38 263,37 263,36 263,35 266,21 266,20 266,19 266,18 266,17 270,1 271,1 " fill="none" stroke="black"/><path d="M 284,1 285,1 286,1 287,1 " fill="none" stroke="black"/><path d="M 305,1 306,1 307,1 308,1 " fill="none" stroke="black"/><path d="M 324,1 325,1 326,1 327,1 328,1 329,1 330,1 331,1 332,1 333,1 " fill="none" stroke="black"/><path d="M 348,1 348,2 349,2 349,1 350,1 350,2 351,2 351,1 352,1 352,2 353,2 353,1 354,2 355,2 356,2 357,2 358,2 347,2 346,2 345,2 344,2 343,2 342,2 342,3 341,3 340,3 339,3 338,3 337,3 337,2 336,2 335,2 334,2 " fill="none" stroke="black"/><path d="M 382,1 382,2 383,2 383,1 384,1 384,2 385,2 385,1 386,1 386,2 387,2 387,1 388,1 388,2 389,2 389,1 390,1 390,2 391,2 391,1 392,2 393,2 394,2 395,2 396,2 396,3 397,3 398,3 398,4 399,4 400,4 400,5 401,5 401,6 402,6 402,7 402,8 403,8 403,9 404,9 404,10 404,11 404,12 404,13 404,14 404,15 404,16 404,17 404,18 404,19 404,20 404,21 403,21 403,22 403,23 402,23 402,24 402,25 401,25 401,26 400,26 400,27 400,28 399,28 399,29 399,30 399,31 405,16 405,15 405,14 381,2 380,2 379,2 378,2 377,2 376,2 375,2 375,3 374,3 373,3 372,3 371,3 370,3 369,3 368,3 367,3 366,3 365,3 364,3 363,3 362,3 361,3 360,3 359,3 " fill="none" stroke="black"/><path d="M 28,2 29,2 30,2 31,2 " fill="none" stroke="black"/><path d="M 309,2 310,2 311,2 312,2 312,3 313,3 314,3 315,3 316,3 317,3 318,3 319,3 320,3 320,2 321,2 322,2 323,2 " fill="none" stroke="black"/><path d="M 160,5 160,6 160,7 160,8 160,9 160,10 160,11 160,12 160,13 161,13 161,14 161,15 161,16 161,17 161,18 161,19 161,20 161,21 161,22 161,23 162,23 162,24 162,25 162,26 162,27 162,28 162,29 162,30 162,31 162,32 162,33 162,34 162,35 162,36 162,37 162,38 162,39 162,40 162,41 162,42 162,43 162,44 162,45 162,46 162,47 162,48 162,49 162,50 162,51 162,52 162,53 162,54 163,54 163,55 163,56 163,57 163,58 163,59 163,60 163,61 163,62 163,63 164,63 164,64 164,65 164,66 164,67 164,68 164,69 164,70 164,71 164,72 164,73 164,74 164,75 164,76 164,77 164,78 164,79 164,80 164,81 164,82 164,83 164,84 164,85 164,86 164,87 164,88 164,89 164,90 164,91 164,92 164,93 164,94 164,95 164,96 164,97 164,98 164,99 164,100 164,101 164,102 164,103 164,104 165,104 165,105 165,106 165,107 165,108 165,109 165,110 165,111 165,112 165,113 165,114 165,115 165,116 165,117 165,118 165,119 165,120 165,121 165,122 165,123 165,124 165,125 165,126 165,127 165,128 165,129 165,130 165,131 165,132 165,133 165,134 165,135 165,136 166,136 166,129 166,128 166,127 166,126 166,125 166,124 166,123 166,122 166,121 166,120 166,119 166,118 166,117 166,116 166,115 166,114 166,113 165,103 165,102 165,101 165,100 165,99 165,98 165,97 165,96 165,95 165,94 165,93 165,92 165,91 165,90 165,89 165,88 165,87 165,86 165,85 165,84 165,83 165,82 165,81 165,80 165,79 165,78 165,77 165,76 165,75 165,74 165,73 165,72 163,53 163,52 163,51 163,50 163,49 163,48 163,47 163,46 163,45 163,44 163,43 163,42 163,41 163,40 163,39 163,38 163,37 163,36 163,35 163,34 163,33 163,32 162,22 162,21 162,20 " fill="none" stroke="black"/><path d="M 1,26 1,27 1,28 1,29 2,29 2,30 2,31 2,32 2,33 2,34 2,35 1,35 1,36 1,37 1,38 1,39 1,40 1,41 1,42 1,43 1,44 1,45 1,46 1,47 1,48 1,49 1,50 1,51 1,52 1,53 1,54 1,55 1,56 1,57 1,58 1,59 1,60 1,61 1,62 1,63 1,64 1,65 1,66 1,67 1,68 1,69 1,70 1,71 1,72 1,73 1,74 1,75 1,76 1,77 1,78 1,79 1,80 1,81 1,82 1,83 1,84 1,85 1,86 1,87 1,88 1,89 1,90 1,91 1,92 1,93 1,94 1,95 1,96 1,97 1,98 2,81 2,80 2,79 " fill="none" stroke="black"/><path d="M 46,28 46,29 46,30 46,31 46,32 46,33 46,34 46,35 46,36 46,37 47,37 47,38 47,39 47,40 47,41 47,42 47,43 47,44 47,36 " fill="none" stroke="black"/><path d="M 398,32 398,33 398,34 398,35 398,36 398,37 398,38 398,39 398,40 398,41 398,42 398,43 398,44 398,45 399,45 399,46 399,47 399,48 399,49 399,50 399,51 399,52 399,53 399,54 399,55 400,55 400,56 400,57 400,58 400,59 400,60 400,61 400,62 400,63 400,64 400,65 400,66 400,67 400,68 400,69 400,70 400,71 400,72 400,73 400,74 400,75 400,76 400,77 400,78 400,79 400,80 400,81 400,82 400,83 400,84 400,85 400,86 400,87 400,88 400,89 400,90 400,91 400,92 400,93 400,94 400,95 400,96 400,97 400,98 400,99 400,100 400,101 400,102 400,103 400,104 400,105 400,106 400,107 400,108 400,109 400,110 400,111 400,112 400,113 400,114 400,115 400,116 400,117 400,118 400,119 400,120 400,121 400,122 400,123 400,124 400,125 399,125 399,126 399,127 399,128 399,129 399,130 399,131 399,132 399,133 399,134 399,135 399,136 399,137 399,138 399,139 399,140 399,141 399,142 399,143 399,144 399,145 399,146 399,147 399,148 399,149 399,150 399,151 399,152 399,153 399,154 399,155 399,156 399,157 399,158 399,159 399,160 399,161 399,162 399,163 399,164 399,165 399,166 399,167 399,168 399,169 399,170 398,170 398,171 398,172 398,173 398,174 398,175 398,176 398,177 398,178 398,179 398,180 398,181 398,182 398,183 398,184 398,169 398,168 398,167 398,166 398,165 398,164 400,155 400,154 400,153 400,152 400,151 400,150 398,141 398,140 398,139 398,138 398,137 398,136 398,135 398,134 399,124 399,123 399,122 399,121 401,112 401,111 401,110 401,109 401,108 401,107 401,106 401,105 401,104 401,103 401,102 401,101 401,100 401,99 401,98 401,97 401,96 401,95 401,94 401,93 401,92 401,91 401,90 401,89 401,88 401,87 401,86 401,85 401,84 401,83 401,82 401,81 401,80 401,79 401,78 401,77 401,76 401,75 401,74 401,73 401,72 401,71 401,70 401,69 401,68 401,67 401,66 401,65 401,64 400,54 400,53 400,52 " fill="none" stroke="black"/><path d="M 48,45 48,46 48,47 48,48 48,49 48,50 48,51 48,52 48,53 49,53 49,54 49,55 49,56 49,57 49,58 49,59 49,60 49,61 49,62 49,63 49,64 49,65 49,66 49,67 49,68 49,69 49,70 49,71 49,72 49,73 49,74 49,75 49,76 49,77 49,78 49,79 49,80 49,81 49,82 49,83 49,84 50,84 50,85 50,86 50,87 50,88 50,89 50,90 50,91 50,92 50,93 50,94 50,95 50,96 51,96 51,97 51,98 51,99 51,100 51,101 51,102 51,103 51,104 51,105 51,106 51,107 51,108 51,109 51,110 51,111 51,112 51,113 51,114 51,115 51,116 51,117 51,118 51,119 51,120 51,121 51,122 51,123 51,124 51,125 51,126 51,127 51,128 51,129 51,130 51,131 51,132 51,133 51,134 51,135 51,136 51,137 51,138 51,139 51,140 51,141 51,142 51,143 51,144 51,145 51,146 51,147 51,148 51,149 51,150 51,151 51,152 51,153 51,154 51,155 51,156 52,147 52,131 52,130 52,129 52,128 52,127 52,126 52,125 52,124 52,123 52,122 52,121 52,120 52,119 52,118 52,117 52,116 52,115 52,114 52,113 52,112 52,111 52,110 52,109 52,108 52,107 52,106 52,105 51,95 51,94 51,93 50,83 50,82 50,81 50,80 50,79 50,78 50,77 50,76 50,75 50,74 50,73 50,72 50,71 50,70 50,69 50,68 50,67 50,66 50,65 50,64 50,63 50,62 49,52 " fill="none" stroke="black"/><path d="M 58,56 58,57 58,58 58,59 58,60 58,61 58,62 58,63 58,64 58,65 58,66 58,67 58,68 58,69 58,70 58,71 58,72 58,73 58,74 58,75 58,76 58,77 58,78 58,79 58,80 58,81 58,82 58,83 58,84 59,84 59,85 59,86 59,87 59,88 59,89 59,90 59,91 59,92 59,93 59,94 59,95 59,96 59,97 59,98 59,99 59,100 59,101 59,102 59,103 59,104 59,105 59,106 59,107 59,108 59,109 60,109 60,110 60,111 60,112 60,113 60,114 60,115 60,116 60,117 60,118 60,119 60,120 60,121 60,122 60,123 60,124 60,125 60,126 60,127 60,128 60,129 60,130 60,131 60,132 60,133 60,134 60,135 60,136 61,136 61,137 61,138 61,139 61,140 61,141 61,142 61,143 61,144 61,145 60,145 60,146 60,147 60,148 60,149 60,150 60,151 60,152 60,153 60,154 60,155 60,156 60,157 60,158 60,159 60,160 60,161 60,162 60,163 61,163 61,164 61,165 61,166 61,167 61,168 61,169 61,170 61,171 61,172 61,173 61,174 61,175 61,176 61,177 61,178 61,179 61,180 61,181 61,182 61,183 61,184 61,185 61,186 61,187 60,180 61,162 61,161 61,160 61,159 61,135 61,134 61,133 61,132 61,131 61,130 61,129 61,128 61,127 61,126 61,125 61,124 61,123 61,122 61,121 61,120 61,119 61,118 60,108 60,107 60,106 60,105 60,104 60,103 60,102 60,101 60,100 60,99 60,98 60,97 60,96 60,95 60,94 60,93 59,83 59,82 59,81 59,80 59,79 59,78 59,77 59,76 59,75 59,74 59,73 59,72 59,71 59,70 59,69 59,68 59,67 59,66 59,65 59,64 59,63 " fill="none" stroke="black"/><path d="M 2,99 2,100 2,101 2,102 " fill="none" stroke="black"/><path d="M 3,103 3,104 3,105 3,106 3,107 3,108 3,109 3,110 3,111 3,112 3,113 2,113 2,114 2,115 2,116 2,117 2,118 2,119 2,120 2,121 2,122 2,123 2,124 2,125 2,126 2,127 2,128 2,129 2,130 2,131 3,131 3,132 3,133 4,133 4,134 5,134 5,135 1,126 1,125 1,124 1,123 1,122 2,112 2,111 2,110 " fill="none" stroke="black"/><path d="M 227,134 227,135 228,135 228,134 229,134 229,135 230,135 230,134 231,134 231,135 232,135 232,134 233,134 233,135 234,135 234,134 235,134 235,135 236,135 237,135 238,135 239,135 240,135 240,136 241,136 242,136 243,136 226,135 225,135 224,135 223,135 222,135 221,135 220,135 219,135 218,135 218,136 217,136 217,135 216,135 216,136 215,136 215,135 214,135 214,136 213,136 213,135 212,135 212,136 211,136 211,135 210,135 210,136 209,136 209,135 208,135 208,136 207,136 207,135 206,135 206,136 205,136 205,135 204,135 204,136 203,136 203,135 202,135 202,136 201,136 201,135 200,135 200,136 199,136 199,135 198,135 198,136 197,136 197,135 196,136 195,136 194,136 193,136 192,136 191,136 190,136 189,136 188,136 188,137 187,137 187,136 186,136 186,137 185,137 185,136 184,136 184,137 183,137 183,136 182,136 182,137 181,137 181,136 180,136 180,137 179,137 179,136 178,136 178,137 177,137 177,136 176,136 176,137 175,137 175,136 174,136 174,137 173,137 173,136 172,136 172,137 171,137 171,136 170,136 170,137 169,136 " fill="none" stroke="black"/><path d="M 6,136 " fill="none" stroke="black"/><path d="M 4,137 4,138 3,138 2,138 1,138 1,139 1,140 1,141 5,137 " fill="none" stroke="black"/><path d="M 133,137 133,138 134,138 134,137 135,137 135,138 136,138 136,137 137,137 137,138 138,138 138,137 139,137 139,138 140,138 140,137 141,137 141,138 142,138 142,137 143,137 143,138 144,138 144,137 145,137 145,138 146,138 146,137 147,137 147,138 148,137 149,137 150,137 151,137 152,137 153,137 154,137 155,137 132,138 131,138 130,138 129,138 129,139 129,140 129,141 129,142 128,142 128,143 128,144 128,145 128,146 128,147 128,148 127,148 127,149 127,150 127,151 126,151 126,152 126,153 126,154 125,154 125,155 125,156 125,157 125,158 125,159 125,160 124,160 124,161 124,162 124,163 124,164 124,165 124,166 " fill="none" stroke="black"/><path d="M 167,137 168,137 " fill="none" stroke="black"/><path d="M 244,137 245,137 246,137 " fill="none" stroke="black"/><path d="M 247,138 248,138 249,138 249,139 250,139 250,140 251,140 251,141 252,141 252,142 253,142 254,142 255,142 255,141 255,140 255,139 " fill="none" stroke="black"/><path d="M 2,142 2,143 2,144 2,145 2,146 2,147 2,148 3,148 3,149 3,150 3,151 3,152 3,153 3,154 3,155 3,156 3,157 " fill="none" stroke="black"/><path d="M 268,148 269,148 269,149 270,149 270,148 271,149 272,149 " fill="none" stroke="black"/><path d="M 175,149 175,150 176,150 176,149 177,150 178,150 179,150 180,150 181,150 181,151 182,151 183,151 183,152 184,152 184,153 185,153 185,154 186,154 186,155 187,155 187,156 188,156 188,157 189,157 189,158 189,159 190,159 190,160 190,161 191,161 191,162 191,163 192,163 192,164 192,165 193,165 193,166 193,167 193,168 194,168 194,169 194,170 195,170 195,171 195,172 195,173 195,174 195,175 195,176 195,177 195,178 195,179 195,180 195,181 195,182 195,183 196,177 196,176 196,175 194,167 174,150 173,150 172,150 171,150 170,150 170,151 169,151 168,151 168,152 167,152 167,153 166,153 165,153 165,154 164,154 164,155 163,155 163,156 162,156 162,157 161,157 161,158 160,158 160,159 159,159 159,160 158,160 158,161 157,161 157,162 156,162 156,163 155,163 155,164 154,164 154,165 154,166 153,166 153,167 153,168 152,168 152,169 151,169 151,170 151,171 150,171 150,172 149,172 149,173 149,174 148,174 148,175 147,175 147,176 147,177 152,167 " fill="none" stroke="black"/><path d="M 273,150 274,150 274,151 275,151 275,150 276,151 277,151 " fill="none" stroke="black"/><path d="M 278,152 279,152 " fill="none" stroke="black"/><path d="M 280,153 281,153 282,153 282,154 283,154 283,153 284,154 285,154 " fill="none" stroke="black"/><path d="M 286,155 287,155 " fill="none" stroke="black"/><path d="M 288,156 289,156 290,156 290,157 291,157 291,156 292,157 293,157 " fill="none" stroke="black"/><path d="M 52,157 52,158 52,159 52,160 52,161 52,162 52,163 52,164 52,165 52,166 52,167 52,168 52,169 52,170 52,171 52,172 52,173 52,174 52,175 52,176 52,177 52,178 52,179 52,180 52,181 52,182 52,183 52,184 52,185 52,186 52,187 53,187 53,188 53,189 53,190 53,191 53,192 53,193 53,194 53,195 53,196 53,197 53,198 53,199 53,200 53,201 53,202 53,203 53,204 53,205 53,206 53,207 53,208 53,209 53,210 53,211 53,212 53,213 53,214 53,215 53,216 53,217 53,218 53,219 53,220 53,221 53,222 53,223 53,224 53,225 53,226 53,227 53,228 53,229 53,230 53,231 53,232 53,233 53,234 53,235 53,236 53,237 53,238 53,239 53,240 53,241 53,242 53,243 53,244 53,245 53,246 53,247 53,248 53,249 53,250 53,251 53,252 53,253 53,254 53,255 53,256 53,257 53,258 53,259 53,260 53,261 53,262 53,263 53,264 53,265 53,266 53,267 53,268 53,269 53,270 53,271 52,271 52,272 51,272 54,266 54,265 54,264 54,263 54,262 54,261 54,260 54,259 54,258 54,257 54,256 54,255 54,254 54,253 54,252 54,251 54,250 54,249 54,248 54,247 54,246 54,245 54,244 54,243 54,242 54,241 54,240 54,239 54,238 54,237 54,236 54,235 54,234 54,233 54,232 54,231 54,230 54,229 54,228 54,227 54,226 54,225 54,224 54,223 54,222 54,221 54,220 54,219 54,218 54,217 54,216 54,215 54,214 54,213 54,212 54,211 54,210 54,209 54,208 54,207 54,206 54,205 54,204 54,203 54,202 54,201 54,200 54,199 54,198 54,197 54,196 53,186 53,185 53,184 53,183 53,182 53,181 53,180 53,179 53,178 53,177 53,176 53,175 53,174 53,173 53,172 53,171 53,170 53,169 53,168 53,167 53,166 53,165 " fill="none" stroke="black"/><path d="M 2,158 2,159 2,160 2,161 2,162 2,163 2,164 2,165 2,166 2,167 2,168 2,169 2,170 2,171 2,172 2,173 2,174 2,175 2,176 2,177 2,178 2,179 2,180 2,181 2,182 2,183 2,184 2,185 2,186 2,187 2,188 2,189 2,190 2,191 2,192 2,193 2,194 2,195 2,196 2,197 2,198 2,199 2,200 2,201 2,202 2,203 2,204 2,205 2,206 2,207 2,208 2,209 2,210 2,211 2,212 2,213 2,214 2,215 2,216 2,217 2,218 2,219 2,220 2,221 2,222 2,223 2,224 2,225 2,226 2,227 2,228 2,229 2,230 2,231 2,232 2,233 2,234 2,235 2,236 2,237 2,238 2,239 2,240 3,240 3,241 3,242 3,243 3,244 3,245 3,246 3,247 3,248 3,249 3,250 3,251 3,252 3,253 3,254 3,255 3,256 3,257 3,258 3,259 3,260 3,261 3,262 2,255 2,254 2,253 3,239 1,234 1,233 1,232 1,231 1,230 1,229 1,228 1,227 1,226 1,225 1,224 1,223 1,222 1,221 1,220 1,219 1,218 1,217 1,216 1,215 1,214 1,213 1,212 1,211 1,210 1,209 1,208 1,207 1,206 1,205 1,204 1,203 1,202 1,201 1,200 1,199 1,198 1,197 1,196 3,187 3,186 3,185 3,184 3,183 3,182 3,181 3,180 3,179 1,170 1,169 1,168 1,167 1,166 " fill="none" stroke="black"/><path d="M 294,158 295,158 295,159 296,159 296,158 297,159 298,159 " fill="none" stroke="black"/><path d="M 265,159 265,160 266,160 266,159 267,160 268,160 269,160 270,160 271,160 272,160 264,160 263,160 262,160 261,160 260,160 259,160 259,161 258,161 257,161 " fill="none" stroke="black"/><path d="M 299,160 300,160 300,161 301,161 301,160 302,161 303,161 " fill="none" stroke="black"/><path d="M 273,161 274,161 275,161 275,162 276,162 277,162 277,163 278,163 279,163 279,164 280,164 281,164 281,165 282,165 282,166 282,167 283,167 283,168 283,169 " fill="none" stroke="black"/><path d="M 254,162 254,163 253,163 252,163 252,164 251,164 251,165 250,165 249,165 249,166 248,166 248,167 247,167 247,168 246,168 246,167 245,168 245,169 244,169 244,170 243,170 243,171 242,171 242,172 241,172 241,173 241,174 240,174 240,175 239,175 239,176 239,177 238,177 238,178 237,178 237,179 237,180 255,162 256,162 " fill="none" stroke="black"/><path d="M 304,162 305,162 305,163 306,163 306,162 307,163 308,163 " fill="none" stroke="black"/><path d="M 309,164 310,164 " fill="none" stroke="black"/><path d="M 311,165 312,165 313,165 313,166 314,166 314,165 315,166 316,166 " fill="none" stroke="black"/><path d="M 123,167 123,168 123,169 123,170 123,171 122,171 122,172 122,173 122,174 " fill="none" stroke="black"/><path d="M 317,167 318,167 " fill="none" stroke="black"/><path d="M 319,168 320,168 321,168 321,169 322,169 322,168 323,169 324,169 " fill="none" stroke="black"/><path d="M 284,170 284,171 284,172 284,173 284,174 284,175 284,176 284,177 284,178 284,179 284,180 284,181 284,182 285,177 285,176 285,175 " fill="none" stroke="black"/><path d="M 325,170 326,170 " fill="none" stroke="black"/><path d="M 327,171 328,171 329,171 329,172 330,172 330,171 331,172 332,172 " fill="none" stroke="black"/><path d="M 333,173 334,173 334,174 335,174 336,174 337,174 337,175 338,175 339,175 " fill="none" stroke="black"/><path d="M 121,175 121,176 121,177 120,177 120,178 120,179 120,180 120,181 120,182 120,183 120,184 119,184 119,185 119,186 119,187 119,188 119,189 119,190 118,190 118,191 118,192 118,193 117,193 117,194 117,195 117,196 116,196 116,197 116,198 119,183 " fill="none" stroke="black"/><path d="M 340,176 341,176 " fill="none" stroke="black"/><path d="M 342,177 343,177 344,177 344,178 345,178 345,177 346,178 347,178 " fill="none" stroke="black"/><path d="M 146,178 146,179 146,180 145,180 145,181 145,182 145,183 145,184 145,185 145,186 145,187 145,188 145,189 145,190 145,191 145,192 144,187 144,186 " fill="none" stroke="black"/><path d="M 348,179 349,179 " fill="none" stroke="black"/><path d="M 350,180 351,180 352,180 352,181 353,181 353,180 354,181 355,181 " fill="none" stroke="black"/><path d="M 236,181 236,182 236,183 236,184 236,185 236,186 236,187 236,188 236,189 236,190 236,191 " fill="none" stroke="black"/><path d="M 356,182 357,182 " fill="none" stroke="black"/><path d="M 283,183 283,184 283,185 282,185 282,186 282,187 281,187 281,188 280,188 280,189 279,189 279,190 278,190 278,191 277,191 277,192 276,192 276,193 275,193 274,193 274,194 273,194 272,194 272,195 271,195 270,195 270,196 269,196 268,196 " fill="none" stroke="black"/><path d="M 358,183 359,183 360,183 360,184 361,184 361,183 362,184 363,184 " fill="none" stroke="black"/><path d="M 194,184 194,185 194,186 193,186 193,187 192,187 192,188 192,189 191,189 191,190 190,190 190,191 189,191 189,192 188,192 188,193 187,193 187,194 187,195 186,195 186,196 185,196 185,197 184,197 184,198 183,198 183,199 182,199 181,199 181,200 180,200 180,201 179,201 178,201 178,202 177,202 176,202 176,203 175,203 174,203 186,194 191,188 " fill="none" stroke="black"/><path d="M 300,185 300,186 299,186 299,187 298,187 298,188 297,188 297,189 297,190 296,190 296,191 295,191 295,192 294,192 294,193 293,193 293,194 293,195 292,195 292,196 291,196 291,197 290,197 290,198 289,198 289,199 289,200 288,200 288,201 287,201 287,202 286,202 286,203 285,203 285,204 284,204 284,205 284,206 283,206 283,207 282,207 282,208 281,208 281,209 280,209 280,210 279,210 278,210 277,210 283,205 288,199 292,194 296,189 301,185 302,185 303,185 304,185 304,186 305,186 305,187 305,188 305,189 304,189 304,190 303,190 303,191 303,192 302,192 302,193 301,193 301,194 300,194 300,195 300,196 299,196 299,197 298,197 298,198 297,198 297,199 297,200 296,200 296,201 295,201 295,202 294,202 294,203 293,203 293,204 292,204 292,205 291,205 291,206 291,207 290,207 290,208 290,209 290,210 291,210 292,210 296,199 299,195 " fill="none" stroke="black"/><path d="M 364,185 365,185 365,186 366,186 366,185 367,186 368,186 " fill="none" stroke="black"/><path d="M 397,185 397,186 397,187 396,187 396,188 395,188 395,189 395,190 394,190 393,190 393,191 392,191 392,192 391,192 390,192 389,192 388,192 387,192 387,193 386,192 385,192 384,192 383,192 382,192 381,192 381,191 380,191 379,191 " fill="none" stroke="black"/><path d="M 369,187 370,187 " fill="none" stroke="black"/><path d="M 62,188 62,189 62,190 62,191 " fill="none" stroke="black"/><path d="M 371,188 372,188 373,188 373,189 374,189 374,188 375,189 376,189 " fill="none" stroke="black"/><path d="M 377,190 378,190 " fill="none" stroke="black"/><path d="M 63,192 63,193 63,194 64,194 64,195 64,196 65,196 65,197 66,197 66,198 66,199 67,199 67,200 67,201 68,201 68,202 69,202 69,203 69,204 70,204 70,205 70,206 71,206 71,207 72,207 72,208 72,209 73,209 73,210 74,210 74,211 75,211 75,212 76,212 76,213 77,213 77,212 78,213 78,214 79,214 79,215 80,215 80,216 81,216 81,217 82,217 82,218 83,218 83,219 84,219 84,220 85,220 85,219 86,220 86,221 87,221 87,222 88,222 88,223 89,223 90,223 90,224 91,224 91,225 92,225 93,225 93,226 94,226 95,226 95,227 96,227 97,227 " fill="none" stroke="black"/><path d="M 237,192 237,193 237,194 238,194 238,195 239,195 239,196 240,196 240,197 241,197 241,198 242,198 243,198 243,199 244,199 245,199 245,200 246,200 247,200 248,200 249,200 250,200 250,201 251,201 251,200 252,200 252,201 253,201 253,200 254,200 254,201 255,200 256,200 257,200 258,200 259,200 260,200 260,199 261,199 262,199 " fill="none" stroke="black"/><path d="M 146,193 146,194 146,195 147,195 147,196 147,197 148,197 148,198 149,198 149,199 150,199 151,199 151,200 152,200 153,200 " fill="none" stroke="black"/><path d="M 265,197 265,198 266,198 266,197 267,197 264,198 263,198 " fill="none" stroke="black"/><path d="M 115,199 115,200 115,201 114,201 114,202 114,203 114,204 113,204 113,205 113,206 112,206 112,207 112,208 111,208 111,209 111,210 111,211 110,211 110,212 110,213 109,213 109,214 109,215 110,210 " fill="none" stroke="black"/><path d="M 154,201 155,201 156,201 157,201 157,202 158,202 159,202 160,202 160,203 161,203 162,203 163,203 163,204 164,204 165,204 166,204 167,204 168,204 169,204 170,204 171,204 172,204 173,204 " fill="none" stroke="black"/><path d="M 381,206 381,207 382,207 382,206 383,206 383,207 384,207 384,206 385,206 385,207 386,207 386,206 387,206 387,207 388,207 388,206 389,206 389,207 390,207 390,206 391,206 391,207 392,207 392,206 393,207 394,207 395,207 396,207 397,207 397,208 398,208 398,209 398,210 398,211 398,212 398,213 397,213 397,214 397,215 397,216 397,217 398,217 399,217 380,207 379,207 378,207 377,207 376,207 375,207 374,207 373,207 372,207 372,208 371,208 371,207 370,207 370,208 369,208 369,207 368,207 368,208 367,208 367,207 366,207 366,208 365,208 365,207 364,207 364,208 363,208 363,207 362,207 362,208 361,208 361,207 360,207 360,208 359,208 359,207 358,207 358,208 357,208 357,207 356,207 356,208 355,208 354,208 353,208 352,208 351,208 350,208 349,208 348,208 347,208 347,209 346,209 346,208 345,208 345,209 344,209 344,208 343,208 343,209 342,209 342,208 341,208 341,209 340,209 340,208 339,208 339,209 338,209 338,208 337,208 337,209 336,209 336,208 335,208 335,209 334,209 334,208 333,208 333,209 332,209 332,208 331,209 330,209 329,209 328,209 327,209 327,210 326,210 326,211 326,212 326,213 326,214 326,215 326,216 326,217 326,218 326,219 326,220 326,221 326,222 326,223 326,224 326,225 326,226 326,227 326,228 326,229 326,230 326,231 326,232 326,233 326,234 326,235 326,236 326,237 326,238 326,239 326,240 326,241 326,242 326,243 326,244 326,245 326,246 326,247 326,248 326,249 326,250 326,251 326,252 326,253 326,254 326,255 327,255 327,256 327,257 327,258 327,259 327,260 327,261 327,262 327,263 327,264 327,265 327,266 327,267 327,268 327,269 327,270 327,271 327,272 327,273 327,274 327,275 327,276 327,277 327,278 327,279 327,280 327,281 327,282 328,282 328,283 328,284 328,285 328,286 328,287 328,288 328,289 328,290 328,291 329,291 329,292 329,293 329,294 329,295 330,295 331,295 332,295 333,295 333,296 334,296 334,295 335,295 335,296 336,296 336,295 337,295 337,296 338,296 338,295 339,295 339,296 340,295 341,295 342,295 343,295 344,295 345,295 346,295 347,295 348,295 348,294 349,294 349,295 350,294 351,294 352,294 353,294 354,294 355,294 356,294 357,294 358,294 358,293 359,293 360,293 361,293 362,293 363,293 364,293 365,293 366,293 367,293 367,292 368,292 368,293 369,293 369,292 370,292 370,293 371,292 372,292 373,292 374,292 375,292 376,292 377,292 378,292 328,281 328,280 328,279 328,278 328,277 328,276 328,275 328,274 328,273 328,272 328,271 328,270 328,269 328,268 328,267 328,266 328,265 328,264 327,254 327,253 327,252 327,251 327,250 327,249 327,248 327,247 327,246 327,245 327,244 327,243 327,242 327,241 327,240 325,231 325,230 325,229 325,228 325,227 325,226 325,225 325,224 325,223 325,222 325,221 325,220 325,219 325,218 325,217 325,216 325,215 325,214 " fill="none" stroke="black"/><path d="M 302,209 302,210 303,210 303,209 304,209 304,210 305,210 305,209 306,209 306,210 307,210 307,209 308,209 308,210 309,210 309,209 310,209 310,210 311,210 311,209 312,209 312,210 313,210 313,209 314,210 315,210 316,210 317,210 317,211 317,212 317,213 317,214 318,214 318,215 318,216 318,217 318,218 318,219 318,220 318,221 318,222 318,223 318,224 318,225 318,226 318,227 318,228 318,229 318,230 318,231 318,232 319,232 319,233 319,234 319,235 319,236 319,237 319,238 319,239 319,240 319,241 319,242 319,243 319,244 319,245 319,246 319,247 319,248 319,249 319,250 319,251 319,252 319,253 319,254 319,255 319,256 319,257 319,258 319,259 319,260 320,260 320,261 320,262 320,263 320,264 320,265 320,266 320,267 320,268 320,269 320,270 320,271 320,272 320,273 320,274 320,275 320,276 320,277 320,278 320,279 320,280 320,281 320,282 320,283 320,284 320,285 320,286 321,286 321,287 321,288 321,289 321,290 321,291 321,292 321,293 321,294 321,295 321,296 320,296 319,296 318,296 317,296 316,296 316,297 315,297 315,296 314,296 314,297 313,297 313,296 312,297 311,297 310,297 309,297 308,297 307,297 306,297 305,297 304,297 304,298 303,298 303,297 302,297 302,298 301,298 301,297 300,297 300,298 299,298 299,297 298,297 298,298 297,298 297,297 296,297 296,298 295,298 295,297 294,297 294,298 293,298 293,297 292,297 292,298 291,298 291,297 290,297 290,298 289,298 289,297 288,297 288,298 287,298 287,297 286,297 286,298 285,298 285,297 284,297 284,298 283,298 283,297 282,297 282,298 281,298 281,297 280,297 280,298 279,298 279,297 278,297 278,298 277,298 277,297 276,297 276,298 275,298 274,298 273,298 272,298 271,298 271,299 271,300 271,301 321,285 321,284 321,283 321,282 321,281 321,280 321,279 321,278 321,277 321,276 321,275 321,274 321,273 321,272 321,271 321,270 321,269 320,259 320,258 320,257 320,256 320,255 320,254 320,253 320,252 320,251 320,250 320,249 320,248 320,247 320,246 320,245 320,244 320,243 320,242 320,241 319,231 319,230 319,229 319,228 319,227 319,226 319,225 319,224 319,223 301,210 300,210 299,210 298,210 297,210 296,210 295,210 " fill="none" stroke="black"/><path d="M 61,211 61,212 60,212 60,213 60,214 60,215 60,216 60,217 60,218 60,219 60,220 60,221 60,222 60,223 60,224 60,225 60,226 60,227 60,228 60,229 60,230 60,231 60,232 60,233 60,234 60,235 60,236 60,237 60,238 60,239 60,240 60,241 60,242 60,243 60,244 60,245 60,246 60,247 60,248 60,249 60,250 60,251 60,252 60,253 60,254 60,255 60,256 60,257 60,258 60,259 60,260 60,261 60,262 60,263 60,264 61,264 61,265 61,266 61,267 61,268 61,269 62,269 63,269 64,269 65,269 61,263 61,262 61,261 61,260 61,259 61,258 61,257 61,256 61,255 61,254 61,253 61,252 61,251 61,250 61,249 61,248 61,247 61,246 61,245 61,244 61,243 61,242 61,241 61,240 61,239 61,238 61,237 61,236 61,235 61,234 61,233 61,232 61,231 61,230 61,229 61,228 61,227 61,226 61,225 61,224 61,223 61,222 61,221 61,220 61,219 61,218 62,211 63,211 63,212 64,212 64,213 65,213 65,214 66,214 66,215 67,215 67,216 68,216 68,217 69,217 69,218 70,218 70,219 71,219 71,220 72,220 72,221 73,221 73,222 74,222 74,221 75,222 75,223 76,223 76,224 77,224 77,225 78,225 78,226 79,226 79,227 80,227 80,228 81,228 81,229 82,229 82,228 83,229 83,230 84,230 84,231 85,231 86,231 86,232 87,232 87,233 88,233 89,233 89,234 90,234 91,234 91,235 92,235 " fill="none" stroke="black"/><path d="M 256,211 256,212 257,212 257,211 258,211 258,212 259,212 259,211 260,211 260,212 261,212 261,211 262,211 262,212 263,212 263,211 264,211 264,212 265,212 265,211 266,211 266,212 267,212 267,211 268,211 268,212 269,211 270,211 271,211 272,211 273,211 274,211 275,211 276,211 255,212 254,212 253,212 252,212 251,212 250,212 249,212 248,212 247,212 247,213 246,213 246,212 245,212 245,213 244,213 244,212 243,212 243,213 242,213 242,212 241,212 241,213 240,213 240,212 239,212 239,213 238,213 238,212 237,212 237,213 236,213 236,212 235,212 235,213 234,213 234,212 233,212 233,213 232,213 232,212 231,212 231,213 230,213 230,212 229,212 229,213 228,213 228,212 227,212 227,213 226,213 226,212 225,212 225,213 224,213 224,212 223,212 223,213 222,213 222,212 221,212 221,213 220,213 219,213 218,213 217,213 216,213 215,213 214,213 213,213 212,213 212,214 211,214 211,213 210,213 210,214 209,214 209,213 208,213 208,214 207,214 207,213 206,213 206,214 205,214 205,213 204,213 204,214 203,214 203,213 202,213 202,214 201,214 201,213 200,213 200,214 199,214 199,213 198,213 198,214 197,214 197,213 196,214 195,214 194,214 193,214 192,214 191,214 190,214 " fill="none" stroke="black"/><path d="M 293,211 294,211 " fill="none" stroke="black"/><path d="M 185,215 185,216 184,216 183,216 183,217 183,218 182,218 182,219 181,219 180,219 180,220 179,220 179,221 178,221 178,222 178,223 178,224 178,225 178,226 177,226 177,227 177,228 177,229 177,230 177,231 182,217 186,215 187,215 188,215 189,215 " fill="none" stroke="black"/><path d="M 108,216 108,217 " fill="none" stroke="black"/><path d="M 107,218 107,219 107,220 106,220 106,221 106,222 106,223 105,223 105,224 104,224 104,225 104,226 103,226 103,227 103,228 102,228 105,222 " fill="none" stroke="black"/><path d="M 400,218 401,218 402,218 402,219 402,220 403,220 403,221 403,222 403,223 403,224 403,225 403,226 403,227 403,228 403,229 403,230 403,231 403,232 403,233 404,227 404,226 404,225 " fill="none" stroke="black"/><path d="M 139,227 140,227 141,227 142,227 143,227 144,227 " fill="none" stroke="black"/><path d="M 98,228 99,228 100,228 " fill="none" stroke="black"/><path d="M 135,228 135,229 134,229 133,229 133,230 132,230 131,230 131,231 130,231 129,231 129,232 128,232 128,233 127,233 126,233 126,234 125,234 125,235 124,235 124,236 123,236 123,237 122,237 122,238 121,238 121,237 120,238 120,239 119,239 119,240 118,240 118,241 117,241 117,242 116,242 116,243 115,243 115,244 114,244 114,245 113,245 113,246 112,246 112,247 112,248 111,248 111,249 110,249 110,250 110,251 109,251 109,252 109,253 108,253 108,254 108,255 108,256 107,256 107,257 107,258 106,258 106,259 106,260 105,260 105,261 105,262 105,263 107,255 136,228 137,228 138,228 " fill="none" stroke="black"/><path d="M 145,228 146,228 147,228 147,229 148,229 148,230 149,230 149,231 150,231 150,232 150,233 151,233 151,234 151,235 152,235 152,236 152,237 152,238 152,239 152,240 152,241 152,242 151,242 151,243 151,244 151,245 151,246 151,247 150,247 150,248 150,249 150,250 149,250 149,251 149,252 " fill="none" stroke="black"/><path d="M 101,229 " fill="none" stroke="black"/><path d="M 176,232 176,233 176,234 175,234 175,235 175,236 175,237 175,238 174,238 174,239 174,240 174,241 174,242 174,243 174,244 174,245 174,246 174,247 174,248 174,249 174,250 174,251 174,252 174,253 174,254 174,255 174,256 174,257 174,258 173,252 173,251 173,250 173,249 173,248 173,247 173,246 173,245 " fill="none" stroke="black"/><path d="M 402,234 402,235 402,236 402,237 402,238 402,239 " fill="none" stroke="black"/><path d="M 93,236 94,236 95,236 95,237 95,238 95,239 95,240 95,241 94,241 94,242 94,243 93,243 93,244 92,244 92,245 92,246 91,246 91,247 90,247 90,248 89,248 89,249 89,250 88,250 88,251 87,251 87,252 87,253 86,253 86,254 85,254 85,255 85,256 84,256 84,257 84,258 83,258 83,259 83,260 82,260 82,261 81,261 81,262 80,262 80,263 79,263 78,263 78,264 77,264 77,265 76,265 75,265 75,266 74,266 91,245 " fill="none" stroke="black"/><path d="M 401,240 401,241 401,242 401,243 401,244 401,245 401,246 401,247 401,248 401,249 401,250 401,251 401,252 401,253 401,254 401,255 401,256 401,257 401,258 401,259 401,260 401,261 401,262 401,263 401,264 401,265 401,266 401,267 401,268 401,269 401,270 401,271 401,272 401,273 401,274 401,275 401,276 401,277 401,278 401,279 401,280 402,280 402,281 403,281 403,282 404,282 404,283 404,284 404,285 404,286 404,287 404,288 403,288 402,288 402,289 401,289 400,289 399,289 398,289 397,289 397,290 396,290 396,289 395,289 395,290 394,290 393,290 392,290 391,290 390,290 389,290 388,290 387,290 402,269 402,268 402,267 402,266 402,265 402,264 402,263 402,262 402,261 402,260 402,259 402,258 402,257 400,248 " fill="none" stroke="black"/><path d="M 148,253 148,254 148,255 147,255 147,256 147,257 146,257 146,258 145,258 145,259 145,260 144,260 144,261 144,262 143,262 143,263 143,264 142,264 142,265 142,266 141,266 141,267 140,267 140,268 140,269 139,269 139,270 139,271 138,271 138,272 137,272 137,273 137,274 136,274 136,275 135,275 135,276 134,276 134,277 133,277 133,278 132,278 132,279 131,279 131,280 130,280 130,281 129,281 129,282 128,282 128,283 127,283 126,283 126,284 125,284 124,284 124,285 123,285 122,285 122,286 121,286 120,286 119,286 118,286 117,286 117,287 116,287 116,286 115,286 114,286 113,286 112,286 111,286 111,285 110,285 109,285 109,284 108,284 107,284 107,283 106,283 106,282 105,282 105,281 105,280 104,280 104,279 104,278 103,278 103,277 103,276 103,275 103,274 103,273 103,272 103,271 103,270 103,269 103,268 141,265 " fill="none" stroke="black"/><path d="M 175,259 175,260 175,261 176,261 176,262 176,263 177,263 177,264 177,265 178,265 178,266 178,267 179,267 179,268 179,269 180,269 180,270 181,270 181,271 181,272 182,272 182,273 183,273 183,274 184,274 184,275 185,275 185,274 186,275 186,276 187,276 187,277 188,277 188,278 189,278 189,279 190,279 191,279 191,280 192,280 192,281 193,281 194,281 194,282 195,282 196,282 196,283 197,283 198,283 198,284 199,284 200,284 200,285 201,285 202,285 202,286 203,286 204,286 " fill="none" stroke="black"/><path d="M 2,263 2,264 2,265 2,266 2,267 2,268 2,269 1,269 1,270 1,271 1,272 1,273 1,274 1,275 1,276 1,277 2,277 3,277 " fill="none" stroke="black"/><path d="M 104,264 104,265 104,266 104,267 " fill="none" stroke="black"/><path d="M 70,267 71,267 72,267 73,267 " fill="none" stroke="black"/><path d="M 66,268 67,268 68,268 69,268 " fill="none" stroke="black"/><path d="M 47,273 47,274 46,274 45,274 44,274 44,275 43,275 42,275 41,275 41,276 40,276 39,276 38,276 37,276 36,276 35,276 34,276 33,276 32,276 31,276 30,276 29,276 28,276 27,276 27,277 26,277 25,277 24,277 23,277 22,277 48,273 49,273 50,273 " fill="none" stroke="black"/><path d="M 4,278 5,278 6,278 " fill="none" stroke="black"/><path d="M 13,278 13,279 14,279 14,278 15,278 16,278 17,278 18,278 19,278 20,278 21,278 12,279 11,279 10,279 9,279 8,279 7,279 " fill="none" stroke="black"/><path d="M 205,287 206,287 207,287 207,288 208,288 209,288 210,288 " fill="none" stroke="black"/><path d="M 211,289 212,289 212,290 213,290 213,291 213,292 213,293 212,293 212,294 211,294 211,295 211,296 210,296 210,297 209,297 209,298 208,298 208,299 207,299 207,300 206,300 205,300 204,300 203,300 202,300 201,300 200,300 199,300 198,300 210,295 " fill="none" stroke="black"/><path d="M 379,291 380,291 381,291 382,291 383,291 384,291 385,291 386,291 " fill="none" stroke="black"/><path d="M 220,293 220,294 219,294 219,295 218,295 218,296 221,293 222,293 223,293 224,293 225,293 226,293 227,293 228,293 229,293 230,293 231,293 " fill="none" stroke="black"/><path d="M 232,294 233,294 234,294 235,294 236,294 237,294 237,295 238,295 239,295 240,295 241,295 242,295 243,295 244,295 244,296 245,296 245,295 246,295 246,296 247,296 247,295 248,296 249,296 250,296 251,296 252,296 253,296 254,296 255,296 256,296 256,297 257,297 257,296 258,296 258,297 259,297 260,297 261,297 262,297 263,297 263,298 263,299 264,299 264,300 264,301 " fill="none" stroke="black"/><path d="M 155,296 155,297 156,297 156,296 157,296 157,297 158,297 158,296 159,297 160,297 161,297 162,297 163,297 164,297 165,297 166,297 167,297 168,297 169,297 170,297 171,297 172,297 173,297 174,297 175,297 176,297 177,297 177,298 178,298 178,297 179,298 180,298 181,298 182,298 183,298 184,298 185,298 186,298 187,298 187,299 188,299 188,298 189,298 189,299 190,299 190,298 191,299 192,299 193,299 194,299 195,299 196,299 197,299 154,297 153,297 152,297 151,297 150,297 149,297 148,297 " fill="none" stroke="black"/><path d="M 217,297 217,298 217,299 218,299 218,300 219,300 " fill="none" stroke="black"/><path d="M 143,298 143,299 142,299 141,299 141,300 140,300 140,301 140,302 140,303 140,304 140,305 140,306 140,307 140,308 140,309 140,310 140,311 140,312 140,313 140,314 140,315 140,316 140,317 140,318 140,319 140,320 140,321 140,322 140,323 140,324 140,325 140,326 140,327 140,328 140,329 140,330 140,331 140,332 140,333 140,334 140,335 140,336 140,337 140,338 140,339 140,340 140,341 140,342 140,343 140,344 140,345 140,346 140,347 140,348 140,349 140,350 140,351 140,352 140,353 139,353 139,354 139,355 139,356 139,357 139,358 139,359 139,360 139,361 139,362 138,362 138,363 138,364 138,365 138,366 138,367 138,368 138,369 138,370 138,371 139,371 139,372 139,373 140,373 140,374 141,374 142,374 143,374 144,374 144,375 145,375 145,374 146,374 146,375 147,375 147,374 148,374 148,375 149,375 149,374 150,374 150,375 151,375 151,374 152,374 152,375 153,375 153,374 154,374 154,375 155,375 155,374 156,374 156,375 157,375 157,374 158,374 158,375 159,375 159,374 160,374 160,375 161,375 161,374 162,374 162,375 163,375 163,374 164,374 164,375 165,375 165,374 166,374 166,375 167,375 167,374 168,374 168,375 169,375 169,374 170,374 170,375 171,375 171,374 172,374 172,375 173,375 173,374 174,374 174,375 175,375 175,374 176,374 176,375 177,375 177,374 178,374 178,375 179,375 179,374 180,374 180,375 181,375 181,374 182,374 182,375 183,375 183,374 184,374 184,375 185,375 185,374 186,374 186,375 187,375 187,374 188,374 188,375 189,375 189,374 190,374 190,375 191,375 191,374 192,374 192,375 193,375 193,374 194,374 194,375 195,375 195,374 196,374 196,375 197,375 197,374 198,374 198,375 199,375 199,374 200,374 200,375 201,375 201,374 202,374 202,375 203,375 203,374 204,374 204,375 205,375 205,374 206,374 206,375 207,375 207,374 208,374 208,375 209,375 209,374 210,374 210,375 211,375 211,374 212,374 212,375 213,375 213,374 214,374 214,375 215,375 215,374 216,374 216,375 217,375 217,374 218,374 218,375 219,375 219,374 220,375 221,375 222,375 223,375 224,375 225,375 226,375 226,374 227,374 227,373 228,373 228,372 228,371 228,370 228,369 228,368 228,367 228,366 228,365 228,364 228,363 228,362 228,361 228,360 228,359 228,358 228,357 228,356 228,355 228,354 228,353 228,352 228,351 228,350 228,349 228,348 228,347 228,346 228,345 228,344 228,343 228,342 228,341 228,340 228,339 228,338 228,337 228,336 228,335 228,334 228,333 228,332 228,331 227,331 227,332 227,333 227,334 227,335 227,336 227,337 227,338 227,339 227,340 227,341 227,342 227,343 227,344 227,345 227,346 227,347 227,348 227,349 227,350 227,330 227,329 227,328 227,327 227,326 227,325 227,324 227,323 227,322 227,321 227,320 227,319 227,318 227,317 227,316 227,315 227,314 227,313 227,312 227,311 227,310 227,309 227,308 227,307 227,306 227,305 227,304 227,303 227,302 227,301 227,300 226,300 226,299 225,299 224,299 223,299 222,299 221,299 220,299 228,305 226,314 226,315 226,316 226,317 226,318 226,319 226,320 226,321 226,322 227,360 227,361 227,362 227,363 227,364 227,365 227,366 141,344 141,343 141,342 141,341 141,340 141,339 141,338 141,337 141,336 141,335 141,334 141,333 141,332 141,331 141,330 141,329 141,328 141,327 141,326 141,325 141,324 141,323 141,322 141,321 141,320 141,319 141,318 141,317 141,316 141,315 141,314 141,313 141,312 141,311 144,298 145,298 146,298 147,298 " fill="none" stroke="black"/><path d="M 265,302 265,303 265,304 266,304 266,305 266,306 266,307 267,307 267,308 267,309 267,310 268,310 268,311 268,312 268,313 269,313 269,314 269,315 269,316 270,316 270,317 270,318 " fill="none" stroke="black"/><path d="M 272,302 272,303 272,304 272,305 273,305 273,306 273,307 273,308 " fill="none" stroke="black"/><path d="M 1,303 2,303 3,303 4,303 5,303 6,303 7,303 7,304 8,304 8,303 9,303 9,304 10,304 10,303 11,303 11,304 12,304 12,303 13,303 13,304 14,304 14,303 15,303 15,304 16,304 16,303 17,303 17,304 18,304 18,303 19,303 19,304 20,304 20,303 21,303 21,304 22,304 22,303 23,303 23,304 24,304 24,303 25,303 25,304 26,304 26,303 27,303 27,304 28,304 28,303 29,303 29,304 30,304 30,303 31,303 31,304 32,304 32,303 33,303 33,304 34,304 34,303 35,303 35,304 36,304 36,303 37,303 37,304 38,304 38,303 39,303 39,304 40,304 40,303 41,303 41,304 42,304 42,303 43,303 43,304 44,304 44,303 45,303 45,304 46,304 46,303 47,303 47,304 48,304 48,303 49,304 50,304 51,304 52,304 53,304 53,305 53,306 53,307 53,308 53,309 53,310 53,311 53,312 53,313 53,314 53,315 53,316 53,317 53,318 53,319 53,320 53,321 53,322 53,323 53,324 53,325 53,326 53,327 53,328 53,329 53,330 54,330 54,331 54,332 54,333 54,334 54,335 55,335 56,335 57,335 58,335 59,335 60,335 60,334 60,333 60,332 60,331 60,330 60,329 60,328 60,327 60,326 60,325 60,324 60,323 60,322 60,321 60,320 60,319 60,318 60,317 60,316 60,315 60,314 60,313 60,312 60,311 60,310 60,309 61,309 61,310 61,311 61,312 61,313 61,314 61,315 61,316 61,317 61,318 61,319 61,320 61,321 61,322 61,323 61,324 61,325 61,326 61,327 61,328 61,329 61,330 61,308 61,307 61,306 61,305 61,304 62,304 63,304 64,304 65,304 66,304 66,303 67,303 67,304 68,304 68,303 69,303 69,304 70,304 70,303 71,303 71,304 72,304 72,303 73,303 73,304 74,304 74,303 75,303 75,304 76,304 76,303 77,303 77,304 78,304 78,303 79,303 79,304 80,304 80,303 81,303 81,304 82,304 82,303 83,303 83,304 84,304 84,303 85,303 85,304 86,304 86,303 87,303 87,304 88,304 88,303 89,303 89,304 90,304 90,303 91,303 91,304 92,304 92,303 93,303 93,304 94,304 94,303 95,303 95,304 96,304 96,303 97,303 97,304 98,304 98,303 99,303 99,304 100,304 100,303 101,303 101,304 102,304 102,303 103,304 104,304 105,304 106,304 107,304 107,305 107,306 107,307 107,308 107,309 107,310 107,311 107,312 107,313 107,314 107,315 107,316 107,317 107,318 107,319 107,320 107,321 107,322 107,323 107,324 107,325 107,326 107,327 107,328 107,329 107,330 107,331 107,332 107,333 107,334 107,335 107,336 107,337 107,338 107,339 107,340 107,341 107,342 107,343 107,344 107,345 107,346 107,347 107,348 107,349 107,350 107,351 107,352 107,353 107,354 107,355 107,356 107,357 107,358 107,359 107,360 107,361 107,362 107,363 107,364 107,365 107,366 107,367 107,368 107,369 107,370 107,371 107,372 107,373 107,374 107,375 107,376 107,377 107,378 107,379 107,380 107,381 107,382 107,383 107,384 107,385 107,386 107,387 107,388 107,389 107,390 107,391 107,392 107,393 107,394 107,395 107,396 107,397 107,398 107,399 107,400 107,401 107,402 107,403 107,404 107,405 107,406 107,407 107,408 107,409 107,410 107,411 107,412 107,413 107,414 107,415 107,416 107,417 107,418 107,419 107,420 107,421 107,422 107,423 107,424 107,425 107,426 107,427 107,428 107,429 107,430 107,431 107,432 107,433 107,434 107,435 107,436 107,437 107,438 107,439 107,440 107,441 107,442 107,443 107,444 107,445 107,446 107,447 107,448 107,449 107,450 107,451 107,452 107,453 107,454 107,455 107,456 107,457 107,458 107,459 107,460 107,461 107,462 107,463 107,464 107,465 107,466 107,467 107,468 107,469 107,470 107,471 107,472 106,472 106,473 105,473 104,473 103,473 103,474 102,474 102,475 101,475 101,476 101,477 100,477 100,478 99,478 98,478 97,478 96,478 95,478 95,479 94,479 94,478 93,478 93,479 92,479 92,478 91,478 91,479 90,479 90,478 89,478 89,479 88,478 87,478 86,478 85,478 84,478 83,478 82,478 81,478 80,478 80,477 79,477 79,478 78,478 78,477 77,477 77,478 76,478 76,477 75,477 75,478 74,478 74,477 73,477 73,478 72,478 72,477 71,477 71,478 70,478 70,477 69,477 69,478 68,478 68,477 67,477 67,478 66,478 66,477 65,477 65,478 64,478 64,477 63,477 63,478 62,478 62,477 61,477 61,478 60,478 60,477 59,477 59,478 58,478 58,477 57,477 57,478 56,478 56,477 55,477 55,478 54,478 54,477 53,477 53,478 52,478 52,477 51,477 51,478 50,478 50,477 49,477 49,478 48,478 48,477 47,477 47,478 46,478 46,477 45,477 45,478 44,478 44,477 43,477 43,478 42,478 42,477 41,477 41,478 40,478 40,477 39,477 39,478 38,478 38,477 37,477 37,478 36,478 36,477 35,477 35,478 34,478 34,477 33,477 33,478 32,478 32,477 31,477 30,477 29,477 28,477 27,477 26,477 25,477 24,477 23,477 23,476 22,476 22,477 21,477 21,476 20,476 20,477 19,477 19,476 18,476 18,477 17,477 17,476 16,476 16,477 15,477 15,476 14,476 14,477 13,477 13,476 12,476 12,477 11,477 11,476 10,476 10,477 9,476 8,476 7,476 6,476 6,475 5,475 5,474 5,473 4,473 4,472 4,471 4,470 4,469 108,468 108,467 108,466 108,465 108,464 108,463 108,462 108,461 108,460 108,459 108,458 108,457 108,456 108,455 108,454 108,453 108,452 108,451 108,450 108,449 108,448 108,447 108,446 108,445 108,444 108,443 108,442 108,441 108,440 108,439 108,438 108,437 108,436 108,435 108,434 108,433 108,432 108,431 108,430 108,429 108,428 108,427 108,426 108,425 108,424 108,423 108,422 108,421 108,420 108,419 108,418 108,417 108,416 108,415 108,414 108,413 108,412 108,411 108,410 108,409 108,408 108,407 108,406 108,405 108,404 108,403 108,402 108,401 108,400 108,399 108,398 108,397 108,396 108,395 108,394 108,393 108,392 108,391 108,390 108,389 108,388 108,387 108,386 108,385 108,384 108,383 108,382 108,381 108,380 108,379 108,378 108,377 108,376 108,375 108,374 108,373 108,372 108,371 108,370 108,369 108,368 108,367 108,366 108,365 108,364 108,363 108,362 108,361 108,360 108,359 108,358 108,357 108,356 108,355 108,354 108,353 108,352 108,351 108,350 108,349 108,348 108,347 108,346 108,345 108,344 108,343 108,342 108,341 108,340 108,339 108,338 108,337 108,336 108,335 108,334 108,333 108,332 108,331 108,330 108,329 108,328 108,327 108,326 108,325 108,324 108,323 108,322 108,321 108,320 108,319 108,318 108,317 108,316 108,315 108,314 108,313 108,312 108,311 108,310 108,309 54,329 54,328 54,327 54,326 54,325 54,324 54,323 54,322 54,321 54,320 54,319 54,318 54,317 54,316 54,315 54,314 54,313 54,312 54,311 54,310 54,309 " fill="none" stroke="black"/><path d="M 274,309 274,310 274,311 274,312 275,312 275,313 275,314 " fill="none" stroke="black"/><path d="M 1,311 1,312 1,313 1,314 1,315 1,316 1,317 1,318 1,319 1,320 1,321 1,322 1,323 1,324 1,325 1,326 1,327 1,328 1,329 1,330 1,331 1,332 1,333 1,334 2,334 2,335 2,336 2,337 2,338 2,339 2,340 2,341 2,342 2,343 2,344 3,344 3,345 3,346 3,347 3,348 3,349 3,350 3,351 3,352 3,353 3,354 3,355 3,356 3,357 3,358 2,358 2,359 2,360 2,361 1,361 1,362 1,363 1,364 1,365 1,366 1,367 1,368 1,369 1,370 1,371 1,372 1,373 2,357 3,343 2,333 2,332 2,331 2,330 2,329 2,328 2,327 2,326 2,325 2,324 2,323 2,322 2,321 2,320 2,319 2,318 2,317 2,316 " fill="none" stroke="black"/><path d="M 276,315 276,316 276,317 277,317 277,318 277,319 277,320 278,320 278,321 278,322 278,323 279,323 279,324 279,325 279,326 280,326 280,327 280,328 280,329 281,329 281,330 281,331 282,331 283,331 284,331 285,331 285,330 286,330 287,330 288,330 289,330 290,330 291,330 291,331 292,331 293,331 294,331 295,331 296,331 297,331 297,332 298,332 298,331 299,331 299,332 300,332 300,331 301,331 301,332 302,332 302,331 303,331 303,332 304,332 304,331 305,331 306,331 307,331 308,331 309,331 310,331 311,331 312,331 313,331 313,330 314,330 314,331 315,331 315,330 316,330 316,331 317,331 317,330 318,331 319,331 320,331 321,331 322,331 322,332 322,333 322,334 322,335 322,336 322,337 322,338 322,339 322,340 322,341 322,342 323,342 323,343 323,344 323,345 323,346 323,347 323,348 323,349 323,350 323,351 323,352 323,353 323,354 323,355 323,356 323,357 323,358 323,359 323,360 323,361 323,362 323,363 323,364 323,365 323,366 323,367 324,367 324,368 324,369 324,370 324,371 324,372 324,373 324,374 324,375 324,376 324,377 324,378 324,379 324,380 324,381 324,382 324,383 324,384 325,384 325,385 325,386 325,387 325,388 325,389 326,389 326,390 327,390 328,390 329,390 330,390 331,390 331,389 332,389 332,388 332,387 332,386 332,385 332,384 332,383 332,382 332,381 332,380 332,379 332,378 332,377 332,376 332,375 332,374 332,373 332,372 332,371 332,370 332,369 332,368 332,367 332,366 332,365 332,364 332,363 332,362 332,361 332,360 332,359 332,358 332,357 332,356 332,355 331,355 331,356 331,357 331,358 331,359 331,360 331,361 331,362 331,363 331,364 331,365 331,366 331,367 331,368 331,369 331,354 331,353 331,352 331,351 331,350 331,349 331,348 331,347 331,346 331,345 331,344 331,343 331,342 331,341 331,340 331,339 331,338 331,337 331,336 331,335 331,334 331,333 331,332 331,331 332,331 333,331 330,335 330,336 330,337 330,338 330,339 330,340 330,341 330,342 330,343 330,344 330,345 330,346 333,378 333,379 333,380 333,381 333,382 333,383 333,384 325,383 325,382 325,381 325,380 325,379 325,378 325,377 325,376 324,366 324,365 324,364 324,363 324,362 324,361 324,360 324,359 324,358 324,357 324,356 324,355 324,354 324,353 324,352 324,351 323,341 323,340 323,339 323,338 323,337 323,336 " fill="none" stroke="black"/><path d="M 271,319 271,320 271,321 272,321 272,322 272,323 272,324 " fill="none" stroke="black"/><path d="M 273,325 273,326 273,327 274,327 274,328 274,329 274,330 274,331 273,331 273,332 272,332 271,332 270,332 269,332 268,332 267,332 267,333 266,333 266,332 265,332 265,333 264,333 264,332 263,332 263,333 262,333 262,332 261,332 261,333 260,333 260,332 259,332 259,333 258,333 257,333 256,333 255,333 254,333 254,334 253,334 253,335 253,336 252,336 252,337 252,338 252,339 252,340 252,341 252,342 252,343 252,344 252,345 252,346 252,347 252,348 252,349 252,350 252,351 252,352 252,353 252,354 252,355 252,356 252,357 252,358 252,359 252,360 252,361 252,362 252,363 252,364 252,365 252,366 252,367 252,368 252,369 252,370 252,371 252,372 252,373 252,374 252,375 252,376 252,377 252,378 252,379 252,380 252,381 252,382 252,383 252,384 252,385 252,386 252,387 252,388 252,389 252,390 252,391 252,392 252,393 252,394 252,395 252,396 252,397 252,398 252,399 252,400 252,401 252,402 252,403 252,404 252,405 252,406 252,407 252,408 252,409 252,410 252,411 252,412 252,413 252,414 252,415 252,416 252,417 252,418 252,419 252,420 252,421 252,422 252,423 252,424 252,425 252,426 252,427 252,428 252,429 252,430 252,431 252,432 252,433 252,434 252,435 252,436 252,437 252,438 252,439 252,440 252,441 252,442 252,443 252,444 252,445 252,446 252,447 252,448 252,449 252,450 252,451 252,452 252,453 252,454 252,455 252,456 252,457 252,458 252,459 252,460 252,461 252,462 252,463 252,464 252,465 252,466 252,467 252,468 252,469 252,470 252,471 252,472 252,473 252,474 252,475 252,476 252,477 252,478 253,478 253,479 254,479 255,479 256,479 257,479 258,479 258,478 259,478 259,477 259,476 260,476 260,475 260,474 261,474 262,474 251,473 251,472 251,471 251,470 251,469 251,468 251,467 251,466 251,465 251,464 251,463 251,462 251,461 251,460 251,459 251,458 251,457 251,456 251,455 251,454 251,453 251,452 251,451 251,450 251,449 251,448 251,447 251,446 251,445 251,444 251,443 251,442 251,441 251,440 251,439 251,438 251,437 251,436 251,435 251,434 251,433 251,432 251,431 251,430 251,429 251,428 251,427 251,426 251,425 251,424 251,423 251,422 251,421 251,420 251,419 251,418 251,417 251,416 251,415 251,414 251,413 251,412 251,411 251,410 251,409 251,408 251,407 251,406 251,405 251,404 251,403 251,402 251,401 251,400 251,399 251,398 251,397 251,396 251,395 251,394 251,393 251,392 251,391 251,390 251,389 251,388 251,387 251,386 251,385 251,384 251,383 251,382 251,381 251,380 251,379 251,378 251,377 251,376 251,375 251,374 251,373 251,372 251,371 251,370 251,369 251,368 251,367 251,366 251,365 251,364 251,363 251,362 251,361 251,360 251,359 251,358 251,357 251,356 251,355 251,354 251,353 251,352 251,351 251,350 251,349 251,348 251,347 251,346 251,345 251,344 251,343 251,342 251,341 " fill="none" stroke="black"/><path d="M 374,328 374,329 375,329 375,328 376,328 376,329 377,329 377,328 378,328 378,329 379,329 379,328 380,328 380,329 381,329 381,328 382,328 382,329 383,329 383,328 384,328 384,329 385,329 385,328 386,328 386,329 387,329 387,328 388,328 388,329 389,329 389,328 390,328 390,329 391,329 391,328 392,328 392,329 393,329 393,328 394,328 394,329 395,329 395,328 396,328 397,328 398,328 399,328 400,328 401,328 402,328 403,328 403,329 404,329 404,330 404,331 404,332 404,333 404,334 404,335 403,335 402,335 402,336 401,336 401,337 401,338 401,339 401,340 402,340 402,341 402,342 402,343 402,344 402,345 402,346 402,347 402,348 402,349 402,350 402,351 373,329 372,329 371,329 370,329 369,329 368,329 367,329 366,329 365,329 365,330 364,330 364,329 363,329 363,330 362,330 362,329 361,329 361,330 360,330 360,329 359,329 359,330 358,330 358,329 357,329 357,330 356,330 356,329 355,329 355,330 354,330 354,329 353,329 353,330 352,330 352,329 351,329 351,330 350,330 350,329 349,329 349,330 348,330 348,329 347,329 347,330 346,330 346,329 345,329 345,330 344,330 344,329 343,329 343,330 342,330 342,329 341,330 340,330 339,330 338,330 337,330 336,330 335,330 334,330 " fill="none" stroke="black"/><path d="M 401,352 401,353 401,354 401,355 401,356 401,357 401,358 401,359 402,359 402,360 402,361 402,362 402,363 402,364 402,365 402,366 402,367 402,368 402,369 402,370 402,371 402,372 402,373 402,374 402,375 402,376 402,377 402,378 402,379 403,379 403,380 403,381 403,382 403,383 403,384 403,385 403,386 403,387 403,388 403,389 403,390 403,391 403,392 403,393 403,394 403,395 403,396 403,397 403,398 404,398 404,399 404,400 404,401 404,402 404,403 404,404 404,405 404,406 404,407 404,408 404,409 404,410 404,411 404,412 404,413 404,414 404,415 404,416 404,417 404,418 404,419 404,420 404,421 404,422 404,423 404,424 404,425 404,426 403,426 403,427 403,428 403,429 402,429 402,430 402,431 402,432 402,433 402,434 402,435 402,436 402,437 402,438 402,439 402,440 402,441 402,442 402,443 403,443 403,444 403,445 403,446 403,447 403,448 403,449 403,450 403,451 403,452 403,453 403,454 403,455 403,456 403,457 403,458 403,459 403,460 403,461 403,462 403,463 403,464 403,465 403,466 402,466 402,467 402,468 402,469 402,470 402,471 402,472 402,473 404,457 404,456 404,455 404,454 404,453 404,452 403,442 403,441 403,440 403,439 405,421 405,420 405,419 405,418 405,417 405,416 405,415 405,414 405,413 405,412 405,411 405,410 405,409 405,408 405,407 404,397 404,396 404,395 404,394 404,393 404,392 404,391 404,390 404,389 404,388 404,387 404,386 403,368 403,367 403,366 403,365 403,364 " fill="none" stroke="black"/><path d="M 2,374 2,375 2,376 2,377 2,378 2,379 2,380 2,381 2,382 2,383 2,384 2,385 2,386 2,387 2,388 2,389 2,390 2,391 2,392 2,393 2,394 2,395 2,396 2,397 2,398 2,399 3,399 3,400 3,401 3,402 3,403 3,404 3,405 3,406 3,407 3,408 3,409 3,410 3,411 3,412 3,413 3,414 3,415 3,416 3,417 3,418 3,419 3,420 3,421 3,422 3,423 3,424 3,425 3,426 3,427 3,428 3,429 3,430 3,431 3,432 3,433 3,434 3,435 3,436 3,437 3,438 3,439 3,440 3,441 3,442 3,443 3,444 3,445 3,446 3,447 2,447 2,448 2,449 2,450 2,451 2,452 2,453 2,454 2,455 2,456 2,457 2,458 2,459 2,460 2,461 2,462 2,463 2,464 3,464 3,465 3,466 3,467 3,468 1,459 1,458 1,457 1,456 2,446 2,445 2,444 2,443 2,442 2,441 2,440 2,439 2,438 2,437 2,436 4,427 4,426 4,425 4,424 4,423 4,422 4,410 4,409 4,408 3,398 3,397 3,396 3,395 3,394 3,393 3,392 " fill="none" stroke="black"/><path d="M 336,474 337,474 338,474 339,474 340,474 341,474 342,474 343,474 344,474 345,474 " fill="none" stroke="black"/><path d="M 401,474 401,475 401,476 401,477 400,477 400,478 399,478 398,478 397,478 396,478 395,478 394,478 394,477 393,477 392,477 391,477 390,477 389,477 389,476 388,476 388,477 387,477 387,476 386,476 386,477 385,477 385,476 384,476 384,477 383,477 382,477 381,477 380,477 379,477 378,477 377,477 376,477 375,477 375,478 374,477 373,477 372,477 371,477 370,477 369,477 368,477 367,477 366,477 366,476 365,476 365,477 364,476 363,476 362,476 361,476 360,476 359,476 358,476 357,476 356,476 356,475 355,475 355,476 354,476 354,475 353,475 352,475 351,475 350,475 349,475 348,475 347,475 346,475 " fill="none" stroke="black"/><path d="M 263,475 264,475 265,475 266,475 267,475 268,475 269,475 269,476 270,476 270,475 271,475 271,476 272,476 272,475 273,475 273,476 274,476 274,475 275,476 276,476 277,476 278,476 279,476 280,476 281,476 282,476 283,476 283,477 284,477 284,476 285,476 285,477 286,477 286,476 287,476 287,477 288,477 288,476 289,476 289,477 290,477 290,476 291,476 291,477 292,477 292,476 293,476 293,477 294,477 294,476 295,476 295,477 296,477 296,476 297,476 297,477 298,477 298,476 299,476 299,477 300,477 300,476 301,476 301,477 302,477 302,476 303,476 303,477 304,477 304,476 305,476 305,477 306,477 306,476 307,476 307,477 308,477 308,476 309,476 309,477 310,477 310,476 311,476 312,476 313,476 314,476 315,476 316,476 317,476 317,475 318,475 319,475 320,475 321,475 322,475 323,475 324,475 325,475 326,475 327,475 328,475 329,475 330,475 331,475 332,475 333,475 334,475 335,475 " fill="none" stroke="black"/></svg>