<svg xmlns="http://www.w3.org/2000/svg" style="background-color:white;"><path d="M 8,1 8,2 7,2 7,3 6,3 6,4 5,4 5,5 4,5 4,6 4,7 3,7 3,8 2,8 2,9 1,9 1,10 1,11 3,6 9,1 10,1 " fill="none" stroke="black"/><path d="M 25,1 26,1 27,1 28,1 29,1 30,1 31,1 32,1 33,1 " fill="none" stroke="black"/><path d="M 45,1 " fill="none" stroke="black"/><path d="M 53,1 53,2 53,3 53,4 53,5 53,6 53,7 53,8 53,9 53,10 53,11 53,12 53,13 53,14 53,15 53,16 53,17 53,18 53,19 53,20 53,21 53,22 53,23 53,24 53,25 53,26 54,26 54,27 54,28 54,29 54,30 54,31 54,32 54,33 54,34 54,35 54,36 55,36 55,37 55,38 55,39 55,40 55,41 55,42 55,43 55,44 55,45 55,46 56,46 56,47 56,48 56,49 56,50 56,51 56,52 56,53 57,53 57,54 57,55 57,56 57,57 57,58 57,59 57,60 57,61 57,62 57,63 57,64 57,65 57,66 57,67 57,68 57,69 57,70 57,71 57,72 57,73 57,74 57,75 57,76 57,77 57,78 57,79 57,80 57,81 57,82 57,83 57,84 58,84 58,85 58,86 58,87 58,88 58,89 58,90 58,91 58,83 58,82 58,81 58,80 58,79 58,78 58,77 58,76 58,75 58,74 58,73 58,72 58,71 58,70 58,69 58,68 58,67 58,66 58,65 58,64 58,63 58,62 58,61 58,60 56,45 55,35 54,25 54,24 54,23 54,22 54,21 54,20 54,19 54,18 54,17 54,16 54,15 54,14 54,13 54,12 54,11 54,10 54,9 54,8 54,7 54,6 54,5 " fill="none" stroke="black"/><path d="M 58,1 59,1 60,1 61,1 62,1 63,1 64,1 65,1 65,2 66,1 67,1 68,1 69,1 70,1 71,1 72,1 73,1 74,1 75,1 76,1 77,1 78,1 79,1 80,1 81,1 82,1 83,1 84,1 85,1 86,1 87,1 88,1 89,1 90,1 91,1 92,1 93,1 94,1 95,1 96,1 96,2 97,2 97,1 98,1 98,2 99,2 99,1 100,1 100,2 101,2 101,1 102,1 102,2 103,2 103,1 104,1 104,2 105,2 105,1 106,1 106,2 107,2 107,1 108,1 108,2 109,2 109,1 110,1 110,2 111,2 111,1 112,1 112,2 113,2 113,1 114,1 114,2 115,2 115,1 116,1 116,2 117,2 117,1 118,2 119,2 120,2 121,2 122,2 123,2 124,2 125,2 126,2 126,3 127,3 127,2 128,2 128,3 129,3 129,2 130,2 130,3 131,3 131,2 132,2 132,3 133,3 133,2 134,2 134,3 135,3 135,2 136,2 136,3 137,3 137,2 138,2 138,3 139,3 139,2 140,2 140,3 141,3 141,2 142,2 143,2 144,2 145,2 146,2 147,2 148,2 149,2 150,2 151,2 151,3 151,4 151,5 151,6 151,7 152,7 152,8 152,9 152,10 152,11 152,12 152,13 152,14 " fill="none" stroke="black"/><path d="M 160,1 160,2 160,3 160,4 160,5 160,6 160,7 160,8 160,9 160,10 160,11 160,12 160,13 160,14 160,15 160,16 160,17 160,18 160,19 161,19 161,20 161,21 161,22 161,23 161,24 161,25 161,26 161,27 161,28 161,29 161,30 161,31 161,32 161,33 161,34 161,35 161,36 161,37 161,38 161,39 161,40 161,41 161,42 161,43 161,44 161,45 161,46 161,47 161,48 161,49 161,50 162,50 162,51 162,52 162,53 162,54 162,55 162,56 162,57 162,58 162,59 162,60 162,61 162,62 163,62 163,63 163,64 163,65 163,66 163,67 163,68 163,69 163,70 163,71 163,72 163,73 163,74 163,75 163,76 163,77 163,78 163,79 163,80 163,81 163,82 163,83 163,84 163,85 163,86 163,87 163,88 163,89 163,90 163,91 163,92 163,93 163,94 163,95 163,96 164,96 164,97 164,98 164,99 164,100 164,101 164,102 164,103 164,104 164,105 164,106 164,107 164,108 164,109 164,110 164,111 164,112 164,113 164,114 165,114 165,115 165,116 165,117 165,118 165,119 165,120 165,121 165,122 165,123 165,124 165,125 165,126 165,127 165,128 165,129 165,130 165,131 165,132 165,133 166,127 166,126 166,125 166,124 166,123 165,113 165,112 165,111 165,110 165,109 165,108 165,107 165,106 165,105 164,95 164,94 164,93 164,92 164,91 164,90 164,89 164,88 164,87 164,86 164,85 164,84 164,83 164,82 164,81 164,80 164,79 164,78 164,77 164,76 164,75 164,74 164,73 164,72 164,71 163,61 163,60 163,59 162,49 162,48 162,47 162,46 162,45 162,44 162,43 162,42 162,41 162,40 162,39 162,38 162,37 162,36 162,35 162,34 162,33 162,32 162,31 162,30 162,29 162,28 159,10 159,9 159,8 159,7 159,6 159,5 " fill="none" stroke="black"/><path d="M 173,1 174,1 175,1 176,1 177,1 " fill="none" stroke="black"/><path d="M 197,1 198,1 199,1 200,1 201,1 202,1 203,1 204,1 205,1 206,1 207,1 208,1 209,1 210,1 211,1 212,1 213,1 214,1 215,1 216,1 217,1 218,1 219,1 220,1 221,1 222,1 223,1 224,1 225,1 226,1 227,1 228,1 229,1 230,1 231,1 232,1 233,1 234,1 235,1 236,1 237,1 238,1 239,1 240,1 241,1 242,1 243,1 244,1 245,1 246,1 247,1 248,1 249,1 250,1 251,1 252,1 253,1 254,1 254,2 254,3 254,4 254,5 254,6 254,7 254,8 254,9 254,10 254,11 254,12 254,13 254,14 254,15 254,16 254,17 254,18 254,19 254,20 254,21 254,22 254,23 254,24 254,25 254,26 254,27 255,27 255,28 255,29 255,30 255,31 255,32 255,33 255,34 255,35 255,36 255,37 255,38 255,39 255,40 255,41 255,42 255,43 255,44 255,45 255,46 255,47 255,48 255,49 255,50 255,51 255,52 255,53 255,54 255,55 255,56 255,57 255,58 255,59 255,60 255,61 255,62 255,63 255,64 255,65 255,66 255,67 255,68 255,69 255,70 255,71 255,72 255,73 255,74 255,75 255,76 255,77 255,78 255,79 255,80 255,81 255,82 255,83 255,84 255,85 255,86 255,87 255,88 255,89 255,90 255,91 255,92 255,93 255,94 255,95 255,96 255,97 255,98 255,99 255,100 255,101 255,102 255,103 255,104 255,105 255,106 255,107 255,108 255,109 255,110 255,111 255,112 255,113 255,114 255,115 255,116 255,117 255,118 255,119 255,120 255,121 256,121 256,122 256,123 256,124 256,125 256,126 256,127 256,128 256,129 256,130 256,131 256,132 256,133 256,134 256,135 256,136 256,137 256,138 256,139 256,140 256,141 256,142 255,142 257,137 257,136 257,135 257,134 257,133 257,132 257,131 257,130 256,120 254,111 254,110 254,109 254,108 254,107 254,106 254,105 254,104 254,103 254,102 254,101 254,100 254,99 256,90 256,89 256,88 256,87 256,86 256,85 256,84 256,83 256,82 256,81 256,80 256,79 256,78 256,77 256,76 256,75 256,74 256,73 256,72 256,71 256,70 256,69 256,68 256,67 256,66 254,57 254,56 254,55 254,54 254,53 254,52 254,51 254,50 254,49 254,48 254,47 254,46 254,45 254,44 254,43 254,42 254,41 254,40 254,39 254,38 254,37 255,26 255,25 255,24 255,23 255,22 255,21 255,20 255,19 255,18 255,17 255,16 255,15 255,14 255,13 255,12 255,11 255,10 255,9 255,8 255,7 255,6 " fill="none" stroke="black"/><path d="M 260,1 260,2 260,3 261,3 261,4 262,4 262,5 262,6 " fill="none" stroke="black"/><path d="M 264,1 264,2 " fill="none" stroke="black"/><path d="M 267,1 267,2 267,3 267,4 266,4 266,5 266,6 265,6 268,1 269,1 " fill="none" stroke="black"/><path d="M 308,1 309,1 310,1 311,1 312,1 312,2 313,2 314,2 315,2 316,2 317,2 318,2 319,2 320,2 320,1 321,1 322,1 323,1 324,1 325,1 326,1 " fill="none" stroke="black"/><path d="M 328,1 " fill="none" stroke="black"/><path d="M 330,1 331,1 332,1 333,1 334,1 335,1 336,1 337,1 " fill="none" stroke="black"/><path d="M 342,1 343,1 344,1 345,1 346,1 347,1 348,1 349,1 350,1 351,1 352,1 353,1 354,1 355,1 356,1 357,1 358,1 359,1 360,1 361,1 361,2 362,2 362,1 363,1 363,2 364,2 364,1 365,1 365,2 366,2 367,2 368,2 369,2 370,2 371,2 372,2 373,2 374,2 375,2 376,2 " fill="none" stroke="black"/><path d="M 377,1 378,1 379,1 380,1 381,1 382,1 383,1 384,1 385,1 386,1 387,1 388,1 389,1 390,1 391,1 392,1 393,1 394,1 395,1 396,1 " fill="none" stroke="black"/><path d="M 46,2 46,3 46,4 46,5 46,6 46,7 46,8 46,9 46,10 46,11 46,12 46,13 46,14 46,15 46,16 46,17 46,18 46,19 46,20 46,21 46,22 46,23 46,24 46,25 46,26 46,27 46,28 46,29 46,30 46,31 46,32 46,33 46,34 47,34 47,35 47,36 47,37 47,38 47,39 47,40 47,33 47,32 47,31 47,30 47,29 45,20 45,19 45,18 45,17 45,16 45,15 45,14 45,13 45,12 45,11 45,10 45,9 45,8 45,7 " fill="none" stroke="black"/><path d="M 338,2 339,2 340,2 341,2 " fill="none" stroke="black"/><path d="M 397,2 398,2 399,2 399,3 400,3 400,4 401,4 401,5 402,5 402,6 403,6 403,7 403,8 404,8 404,9 404,10 " fill="none" stroke="black"/><path d="M 263,3 " fill="none" stroke="black"/><path d="M 264,7 264,8 264,9 264,10 264,11 264,12 264,13 264,14 264,15 264,16 264,17 264,18 264,19 264,20 264,21 264,22 264,23 264,24 264,25 264,26 264,27 264,28 264,29 263,29 263,30 263,31 263,32 263,33 263,34 263,35 263,36 263,37 263,38 263,39 263,40 263,41 263,42 263,43 263,44 263,45 263,46 263,47 263,48 263,49 263,50 263,51 263,52 263,53 263,54 263,55 263,56 263,57 263,58 263,59 263,60 263,61 263,62 263,63 263,64 263,65 263,66 263,67 263,68 263,69 263,70 263,71 263,72 263,73 263,74 263,75 263,76 263,77 263,78 263,79 263,80 263,81 263,82 263,83 263,84 263,85 263,86 263,87 263,88 263,89 263,90 263,91 263,92 263,93 263,94 263,95 263,96 263,97 263,98 263,99 263,100 263,101 263,102 263,103 263,104 263,105 263,106 263,107 263,108 263,109 263,110 263,111 263,112 263,113 263,114 263,115 263,116 263,117 263,118 263,119 263,120 263,121 263,122 263,123 263,124 263,125 263,126 264,126 264,127 264,128 264,129 264,130 264,131 264,132 264,133 264,134 264,135 264,136 264,137 264,138 264,139 264,140 264,141 264,142 264,143 264,144 264,145 264,146 265,146 265,147 265,148 266,148 267,148 264,125 264,124 264,123 262,114 262,113 262,112 262,111 262,110 262,109 262,108 262,107 262,106 262,105 262,104 262,103 262,102 262,101 262,100 262,99 262,98 262,97 262,96 262,95 262,94 262,93 262,92 262,91 262,90 262,89 262,88 262,87 262,86 262,85 262,84 262,83 262,82 262,81 262,80 262,79 262,78 262,77 262,76 262,75 262,74 262,73 262,72 262,71 262,70 262,69 262,68 262,67 262,66 262,65 262,64 262,63 262,62 262,61 262,60 262,59 262,58 262,57 262,56 262,55 262,54 262,53 262,52 262,51 262,50 262,49 262,48 262,47 262,46 262,45 262,44 262,43 262,42 262,41 262,40 262,39 262,38 262,37 262,36 265,22 265,21 265,20 265,19 265,18 265,17 265,16 265,15 " fill="none" stroke="black"/><path d="M 405,11 405,12 405,13 405,14 405,15 405,16 405,17 405,18 405,19 405,20 405,21 404,21 404,22 404,23 403,23 403,24 403,25 402,25 402,26 401,26 401,27 401,28 400,28 400,29 400,30 400,31 406,16 " fill="none" stroke="black"/><path d="M 153,15 153,16 153,17 153,18 153,19 153,20 153,21 153,22 154,22 154,23 154,24 154,25 154,26 154,27 154,28 154,29 154,30 154,31 154,32 154,33 154,34 154,35 154,36 154,37 154,38 154,39 154,40 154,41 154,42 154,43 154,44 154,45 154,46 154,47 154,48 154,49 154,50 154,51 154,52 154,53 154,54 154,55 155,55 155,56 155,57 155,58 155,59 155,60 155,61 155,62 155,63 155,64 155,65 155,66 155,67 155,68 155,69 155,70 155,71 155,72 155,73 155,74 155,75 155,76 155,77 155,78 155,79 155,80 155,81 155,82 155,83 155,84 156,84 156,85 156,86 156,87 156,88 156,89 156,90 156,91 156,92 156,93 156,94 156,95 156,96 156,97 156,98 156,99 156,100 157,100 157,101 157,102 157,103 157,104 157,105 157,106 157,107 157,108 157,109 157,110 157,111 157,112 157,113 157,114 157,115 157,116 157,117 157,118 157,119 157,120 157,121 157,122 157,123 157,124 157,125 157,126 157,127 157,128 157,129 158,129 158,130 158,131 158,132 158,133 158,134 159,134 159,135 159,136 159,137 158,137 158,128 158,127 158,126 158,125 158,124 158,123 158,122 158,121 158,120 158,119 158,118 158,117 158,116 158,115 158,114 158,113 158,112 158,111 158,110 158,109 157,99 157,98 157,97 157,96 157,95 157,94 157,93 156,83 156,82 156,81 156,80 156,79 156,78 156,77 156,76 156,75 156,74 156,73 156,72 156,71 156,70 156,69 156,68 156,67 156,66 156,65 156,64 155,54 155,53 155,52 155,51 155,50 155,49 155,48 155,47 155,46 155,45 155,44 155,43 155,42 155,41 155,40 155,39 155,38 155,37 155,36 155,35 155,34 155,33 155,32 155,31 " fill="none" stroke="black"/><path d="M 1,27 1,28 1,29 1,30 1,31 1,32 1,33 1,34 1,35 1,36 1,37 1,38 1,39 1,40 1,41 1,42 1,43 1,44 1,45 1,46 1,47 1,48 1,49 " fill="none" stroke="black"/><path d="M 399,32 399,33 399,34 399,35 399,36 399,37 399,38 399,39 399,40 399,41 399,42 399,43 399,44 399,45 399,46 398,39 " fill="none" stroke="black"/><path d="M 48,41 48,42 48,43 48,44 48,45 " fill="none" stroke="black"/><path d="M 49,46 49,47 49,48 49,49 49,50 49,51 49,52 49,53 49,54 49,55 49,56 49,57 49,58 49,59 49,60 50,60 50,61 50,62 50,63 50,64 50,65 50,66 50,67 50,68 50,69 50,70 50,71 50,72 50,73 50,74 50,75 50,76 50,77 50,78 50,79 50,80 50,81 50,82 50,83 50,84 50,85 50,86 50,87 51,87 51,88 51,89 51,90 51,91 51,92 51,93 51,94 51,95 51,96 51,97 52,97 52,98 52,99 52,100 52,101 52,102 52,103 52,104 52,105 52,106 52,107 52,108 52,109 52,110 52,111 52,112 52,113 52,114 52,115 52,116 52,117 52,118 52,119 52,120 52,121 52,122 52,123 52,124 52,125 52,126 52,127 52,128 52,129 52,130 52,131 52,132 52,133 52,134 52,135 52,136 52,137 52,138 52,139 52,140 52,141 51,141 50,141 49,141 48,141 47,141 46,141 45,141 45,140 44,140 44,141 43,141 43,140 42,140 42,141 41,141 41,140 40,141 39,141 38,141 37,141 36,141 35,141 34,141 33,141 32,141 32,142 31,141 30,141 29,141 28,141 27,141 26,141 25,141 24,141 23,141 23,140 22,140 22,141 21,141 21,140 20,140 20,141 19,141 19,140 18,140 18,141 17,141 17,140 16,140 16,141 15,141 15,140 14,140 14,141 13,141 13,140 12,140 12,141 11,141 11,140 10,140 10,141 9,140 53,131 53,130 53,129 53,128 53,127 53,126 53,125 53,124 53,123 53,122 53,121 53,120 53,119 53,118 53,117 53,116 53,115 53,114 53,113 53,112 53,111 53,110 53,109 53,108 53,107 53,106 52,96 52,95 52,94 51,76 51,75 51,74 51,73 51,72 51,71 51,70 51,69 50,59 50,58 50,57 50,56 50,55 50,54 50,53 " fill="none" stroke="black"/><path d="M 400,47 400,48 400,49 400,50 400,51 400,52 400,53 400,54 400,55 400,56 400,57 400,58 401,58 401,59 401,60 401,61 401,62 401,63 401,64 401,65 401,66 401,67 401,68 401,69 401,70 401,71 401,72 401,73 401,74 401,75 401,76 401,77 401,78 401,79 401,80 401,81 401,82 401,83 401,84 401,85 401,86 401,87 401,88 401,89 401,90 401,91 401,92 401,93 401,94 401,95 401,96 401,97 401,98 401,99 401,100 401,101 401,102 401,103 401,104 401,105 401,106 401,107 401,108 401,109 401,110 401,111 401,112 401,113 401,114 401,115 401,116 401,117 401,118 401,119 401,120 401,121 401,122 401,123 401,124 401,125 401,126 400,126 400,127 400,128 400,129 400,130 400,131 400,132 400,133 400,134 400,135 400,136 400,137 400,138 400,139 400,140 400,141 400,142 400,143 400,144 400,145 400,146 400,147 400,148 400,149 400,150 400,151 400,152 400,153 400,154 400,155 400,156 400,157 400,158 400,159 400,160 400,161 400,162 400,163 400,164 400,165 400,166 400,167 399,167 399,168 399,169 399,170 399,171 399,172 399,173 399,174 399,175 399,176 399,177 399,178 399,179 399,180 399,181 399,182 398,182 398,183 398,184 398,185 398,186 398,187 397,187 397,188 396,188 396,189 396,190 395,190 395,191 394,191 393,191 393,192 392,192 391,192 391,193 390,193 389,193 388,193 387,193 386,193 385,193 384,193 383,193 382,193 382,192 381,192 380,192 379,192 379,191 378,191 377,191 398,181 398,180 398,179 398,178 398,177 398,176 401,158 401,157 401,156 401,155 401,154 401,153 401,152 401,151 401,150 401,149 401,148 401,147 399,138 399,137 399,136 399,135 400,125 400,124 400,123 400,122 400,121 400,120 400,119 400,118 400,117 400,116 400,115 400,114 400,113 402,104 402,103 402,102 402,101 402,100 402,99 402,98 402,97 400,88 400,87 400,86 400,85 400,84 400,83 400,82 400,81 402,72 402,71 402,70 402,69 402,68 402,67 401,57 401,56 401,55 401,54 " fill="none" stroke="black"/><path d="M 1,71 1,72 1,73 1,74 1,75 1,76 1,77 1,78 1,79 1,80 1,81 1,82 1,83 1,84 1,85 1,86 1,87 1,88 1,89 1,90 1,91 1,92 1,93 1,94 1,95 1,96 1,97 1,98 1,99 1,100 1,101 1,102 " fill="none" stroke="black"/><path d="M 59,92 59,93 59,94 59,95 59,96 59,97 59,98 59,99 59,100 59,101 59,102 59,103 59,104 59,105 59,106 59,107 59,108 59,109 59,110 59,111 59,112 59,113 59,114 59,115 59,116 59,117 59,118 59,119 59,120 59,121 59,122 59,123 59,124 59,125 59,126 59,127 59,128 59,129 59,130 59,131 59,132 59,133 59,134 60,134 60,135 60,136 60,137 60,138 60,139 61,139 61,140 60,133 60,132 60,131 60,130 60,129 60,128 60,127 60,126 60,125 60,124 60,123 60,122 60,121 60,120 60,119 60,118 60,117 60,116 60,115 60,114 60,113 60,112 60,111 60,110 60,109 60,108 60,107 60,106 60,105 60,104 60,103 60,102 60,101 60,100 60,99 " fill="none" stroke="black"/><path d="M 2,103 2,104 2,105 2,106 2,107 2,108 2,109 2,110 2,111 2,112 2,113 2,114 2,115 1,115 1,116 1,117 1,118 1,119 1,120 1,121 1,122 1,123 1,124 1,125 1,126 1,127 1,128 1,129 1,130 1,114 1,113 1,112 1,111 1,110 " fill="none" stroke="black"/><path d="M 2,131 2,132 2,133 3,133 3,134 4,134 4,135 " fill="none" stroke="black"/><path d="M 164,134 164,135 164,136 164,137 165,137 166,137 167,137 168,137 169,137 170,137 171,137 172,137 173,137 174,137 175,137 175,136 176,136 176,137 177,137 177,136 178,136 178,137 179,137 179,136 180,136 180,137 181,137 181,136 182,136 182,137 183,137 183,136 184,136 184,137 185,137 185,136 186,136 186,137 187,137 187,136 188,136 188,137 189,137 189,136 190,136 190,137 191,137 191,136 192,136 192,137 193,137 193,136 194,136 194,137 195,137 195,136 196,136 196,137 197,137 197,136 198,136 198,137 199,137 199,136 200,136 200,137 201,137 201,136 202,136 202,137 203,137 203,136 204,136 204,137 205,137 205,136 206,136 206,137 207,137 207,136 208,136 208,137 209,137 209,136 210,136 210,137 211,137 211,136 212,136 212,137 213,137 213,136 214,136 214,137 215,137 215,136 216,136 216,137 217,137 217,136 218,136 219,136 220,136 221,136 222,136 223,136 224,136 225,136 226,136 226,135 227,135 227,136 228,136 228,135 229,135 229,136 230,136 230,135 231,135 231,136 232,136 232,135 233,135 233,136 234,136 234,135 235,135 235,136 236,136 237,136 238,136 239,136 240,136 241,136 241,137 242,137 243,137 244,137 244,138 245,138 246,138 " fill="none" stroke="black"/><path d="M 5,136 " fill="none" stroke="black"/><path d="M 1,137 1,138 2,137 3,137 4,137 " fill="none" stroke="black"/><path d="M 151,137 151,138 152,138 152,137 153,137 153,138 154,138 155,138 156,138 157,138 150,138 149,138 148,138 147,138 146,138 145,138 144,138 143,138 142,138 142,139 141,139 141,138 140,138 140,139 139,139 139,138 138,138 138,139 137,139 137,138 136,138 136,139 135,139 135,138 134,138 134,139 133,138 132,138 131,138 130,138 129,138 128,138 127,138 126,138 125,138 124,138 123,138 122,138 122,139 121,139 120,139 119,139 118,139 117,139 116,139 116,140 115,140 115,139 114,139 114,140 113,140 113,139 112,139 112,140 111,140 111,139 110,139 110,140 109,139 108,139 107,139 106,139 105,139 104,139 103,139 " fill="none" stroke="black"/><path d="M 80,138 80,139 81,139 81,138 82,138 82,139 83,139 83,138 84,138 84,139 85,139 85,138 86,138 86,139 87,139 87,138 88,138 88,139 89,139 89,138 90,138 90,139 91,139 91,138 92,138 93,138 94,138 95,138 96,138 97,138 98,138 99,138 100,138 101,138 102,138 79,139 78,139 77,139 76,139 75,139 74,139 73,139 " fill="none" stroke="black"/><path d="M 247,139 248,139 249,139 249,140 250,140 250,141 251,141 251,142 252,142 253,142 " fill="none" stroke="black"/><path d="M 66,140 67,140 68,140 69,140 70,140 71,140 72,140 " fill="none" stroke="black"/><path d="M 1,141 2,141 3,141 4,141 5,141 6,141 7,141 8,141 " fill="none" stroke="black"/><path d="M 62,141 63,141 64,141 65,141 " fill="none" stroke="black"/><path d="M 254,143 " fill="none" stroke="black"/><path d="M 268,149 269,149 " fill="none" stroke="black"/><path d="M 270,150 271,150 272,150 272,151 273,151 273,150 274,151 275,151 " fill="none" stroke="black"/><path d="M 276,152 277,152 277,153 278,153 278,152 279,153 280,153 " fill="none" stroke="black"/><path d="M 281,154 282,154 " fill="none" stroke="black"/><path d="M 283,155 284,155 285,155 285,156 286,156 286,155 287,156 288,156 " fill="none" stroke="black"/><path d="M 289,157 290,157 290,158 291,158 291,157 292,158 293,158 " fill="none" stroke="black"/><path d="M 294,159 295,159 295,160 296,160 296,159 297,160 298,160 " fill="none" stroke="black"/><path d="M 299,161 300,161 " fill="none" stroke="black"/><path d="M 301,162 302,162 303,162 303,163 304,163 304,162 305,163 306,163 " fill="none" stroke="black"/><path d="M 307,164 308,164 308,165 309,165 309,164 310,165 311,165 " fill="none" stroke="black"/><path d="M 312,166 313,166 " fill="none" stroke="black"/><path d="M 314,167 315,167 316,167 316,168 317,168 317,167 318,168 319,168 " fill="none" stroke="black"/><path d="M 320,169 321,169 " fill="none" stroke="black"/><path d="M 322,170 323,170 324,170 324,171 325,171 325,170 326,171 327,171 " fill="none" stroke="black"/><path d="M 328,172 329,172 " fill="none" stroke="black"/><path d="M 330,173 331,173 332,173 332,174 333,174 334,174 335,174 335,175 336,175 337,175 " fill="none" stroke="black"/><path d="M 338,176 339,176 " fill="none" stroke="black"/><path d="M 340,177 341,177 342,177 342,178 343,178 343,177 344,178 345,178 " fill="none" stroke="black"/><path d="M 346,179 347,179 347,180 348,180 348,179 349,180 350,180 " fill="none" stroke="black"/><path d="M 351,181 352,181 " fill="none" stroke="black"/><path d="M 353,182 354,182 355,182 355,183 356,183 356,182 357,183 358,183 " fill="none" stroke="black"/><path d="M 359,184 360,184 " fill="none" stroke="black"/><path d="M 361,185 362,185 363,185 363,186 364,186 365,186 366,186 366,187 367,187 368,187 " fill="none" stroke="black"/><path d="M 369,188 370,188 371,188 371,189 372,189 373,189 374,189 374,190 375,190 376,190 " fill="none" stroke="black"/></svg>