<svg xmlns="http://www.w3.org/2000/svg" style="background-color:white;"><path d="M 149,296 149,297 150,297 150,296 151,296 151,297 152,296 153,296 154,296 155,296 156,296 157,296 158,296 159,296 160,296 161,296 161,297 162,297 162,296 163,296 163,297 164,297 164,296 165,296 165,297 166,297 166,296 167,296 167,297 168,297 168,296 169,296 169,297 170,297 170,296 171,296 171,297 172,297 172,296 173,296 173,297 174,297 174,296 175,296 175,297 176,297 176,296 177,297 178,297 179,297 180,297 181,297 182,297 183,297 184,297 185,297 185,298 186,298 187,298 188,298 189,298 190,298 191,298 192,298 193,298 148,297 147,297 146,297 145,297 144,297 144,298 143,298 142,298 142,299 141,299 140,299 140,300 140,301 139,301 139,302 139,303 139,304 139,305 139,306 139,307 139,308 139,309 139,310 139,311 140,311 140,312 140,313 140,314 140,315 140,316 140,317 140,318 140,319 140,320 140,321 140,322 140,323 140,324 140,325 140,326 140,327 140,328 140,329 140,330 140,331 140,332 140,333 140,334 140,335 140,336 140,337 140,338 140,339 140,340 140,341 140,342 140,343 140,344 140,345 140,346 140,347 140,348 139,327 139,326 139,325 139,324 139,323 139,322 140,310 140,309 140,308 " fill="none" stroke="black"/><path d="M 194,299 195,299 196,299 197,299 198,299 199,299 200,299 201,299 202,299 203,299 " fill="none" stroke="black"/><path d="M 218,299 219,299 220,299 221,299 222,299 223,299 224,299 225,299 226,299 227,299 227,300 227,301 228,301 228,302 228,303 228,304 228,305 228,306 228,307 228,308 228,309 228,310 228,311 228,312 228,313 228,314 228,315 228,316 228,317 228,318 228,319 228,320 228,321 228,322 228,323 228,324 228,325 228,326 228,327 228,328 228,329 228,330 228,331 228,332 228,333 228,334 228,335 228,336 228,337 228,338 228,339 228,340 228,341 228,342 228,343 228,344 228,345 228,346 228,347 228,348 228,349 228,350 228,351 228,352 228,353 228,354 228,355 228,356 228,357 228,358 228,359 228,360 228,361 228,362 228,363 228,364 228,365 228,366 228,367 228,368 228,369 228,370 228,371 228,372 228,373 228,374 227,374 227,375 226,375 225,375 224,375 223,375 222,375 222,376 221,376 221,375 220,375 220,376 219,376 219,375 218,375 218,376 217,376 217,375 216,375 216,376 215,376 215,375 214,375 214,376 213,376 213,375 212,375 212,376 211,376 211,375 210,375 210,376 209,376 209,375 208,375 208,376 207,376 207,375 206,375 206,376 205,376 205,375 204,375 204,376 203,376 203,375 202,375 202,376 201,376 201,375 200,375 200,376 199,376 199,375 198,375 198,376 197,376 197,375 196,375 196,376 195,376 195,375 194,375 194,376 193,376 193,375 192,375 192,376 191,376 191,375 190,375 190,376 189,376 189,375 188,375 188,376 187,376 187,375 186,375 186,376 185,376 185,375 184,375 184,376 183,376 183,375 182,375 182,376 181,376 181,375 180,375 180,376 179,376 179,375 178,375 178,376 177,376 177,375 176,375 176,376 175,376 175,375 174,375 174,376 173,376 173,375 172,375 172,376 171,376 171,375 170,375 169,375 168,375 167,375 166,375 165,375 164,375 163,375 162,375 162,374 161,374 161,375 160,375 160,374 159,374 159,375 158,375 158,374 157,374 157,375 156,375 156,374 155,375 154,375 153,375 152,375 151,375 150,375 149,375 148,375 147,375 147,376 146,376 146,375 145,375 145,376 144,375 143,375 142,375 141,375 140,375 140,374 139,374 139,373 138,373 138,372 138,371 138,370 138,369 138,368 138,367 138,366 138,365 138,364 138,363 138,362 138,361 138,360 138,359 138,358 138,357 138,356 139,356 139,355 139,354 139,353 139,352 139,351 139,350 139,349 137,364 137,365 137,366 137,367 137,368 229,358 229,357 229,356 229,355 229,354 229,353 229,352 229,351 229,350 229,349 229,348 229,347 229,346 229,345 229,344 229,343 229,342 229,341 229,340 229,339 229,338 229,337 229,336 229,335 229,334 227,325 227,324 227,323 227,322 227,321 227,320 227,319 227,318 227,317 227,316 227,315 227,314 227,313 227,312 227,311 227,310 " fill="none" stroke="black"/><path d="M 204,300 205,300 205,301 205,302 205,303 204,303 204,304 203,304 203,305 202,305 202,306 202,307 201,307 201,308 200,308 200,309 199,309 199,310 198,310 198,311 198,312 198,313 198,314 199,314 201,306 " fill="none" stroke="black"/><path d="M 216,300 216,301 215,301 215,302 214,302 214,303 213,303 213,304 212,304 212,305 211,305 211,306 210,306 210,307 210,308 209,308 209,309 208,309 208,310 207,310 207,311 207,312 206,312 206,313 205,313 205,314 204,314 203,314 206,311 209,307 217,300 " fill="none" stroke="black"/><path d="M 200,315 201,315 202,315 " fill="none" stroke="black"/><path d="M 397,327 397,328 398,328 398,327 399,327 399,328 400,328 401,328 402,328 403,328 404,328 404,329 404,330 405,330 405,331 405,332 405,333 405,334 404,334 404,335 403,335 403,336 402,336 402,337 402,338 402,339 402,340 402,341 402,342 402,343 402,344 402,345 402,346 402,347 402,348 402,349 402,350 402,351 402,352 402,353 403,347 403,346 403,345 403,344 403,343 396,328 395,328 394,328 393,328 392,328 391,328 390,328 389,328 388,328 388,329 387,329 387,328 386,328 386,329 385,329 385,328 384,328 384,329 383,329 383,328 382,328 382,329 381,329 381,328 380,328 380,329 379,329 379,328 378,328 378,329 377,329 377,328 376,328 376,329 375,329 375,328 374,328 374,329 373,329 373,328 372,328 372,329 371,329 371,328 370,328 370,329 369,329 369,328 368,329 367,329 366,329 365,329 364,329 363,329 362,329 361,329 360,329 360,330 359,330 359,329 358,329 358,330 357,330 357,329 356,329 356,330 355,330 355,329 354,329 354,330 353,330 353,329 352,329 352,330 351,330 351,329 350,329 350,330 349,330 349,329 348,329 348,330 347,330 347,329 346,329 346,330 345,330 345,329 344,329 344,330 343,330 343,329 342,329 342,330 341,330 341,329 340,329 340,330 339,330 339,329 338,329 338,330 337,330 337,329 336,329 336,330 335,330 334,330 333,330 332,330 331,330 331,331 330,331 330,332 330,333 330,334 330,335 330,336 330,337 330,338 330,339 330,340 330,341 330,342 330,343 330,344 330,345 330,346 330,347 330,348 330,349 330,350 330,351 330,352 330,353 330,354 330,355 330,356 330,357 331,357 331,358 331,359 331,360 331,361 331,362 331,363 331,364 331,365 331,366 331,367 331,368 331,369 331,370 331,371 331,372 331,373 331,374 331,375 332,375 332,376 332,377 332,378 332,379 332,380 332,381 332,382 332,383 332,384 332,385 332,386 332,387 332,388 332,389 331,389 331,390 330,390 329,390 328,390 327,390 326,390 326,389 326,388 333,384 332,374 332,373 332,372 332,371 332,370 332,369 332,368 332,367 332,366 331,356 331,355 331,354 331,353 331,352 331,351 331,350 331,349 331,348 331,347 331,346 331,345 331,344 331,343 331,342 331,341 331,340 " fill="none" stroke="black"/><path d="M 285,330 285,331 284,331 284,332 283,332 283,333 283,334 283,335 283,336 283,337 283,338 284,338 284,339 284,340 285,340 285,341 285,342 285,343 286,343 286,344 286,345 286,342 286,330 287,330 288,330 289,330 290,330 291,330 292,330 293,330 " fill="none" stroke="black"/><path d="M 301,330 301,331 302,331 302,330 303,330 303,331 304,331 304,330 305,330 305,331 306,331 306,330 307,330 307,331 308,331 308,330 309,330 309,331 310,331 310,330 311,330 311,331 312,331 312,330 313,330 313,331 314,331 314,330 315,330 315,331 316,331 316,330 317,330 317,331 318,331 318,330 319,331 320,331 321,331 322,331 322,332 322,333 322,334 322,335 322,336 323,336 323,337 323,338 323,339 323,340 323,341 323,342 323,343 323,344 323,345 323,346 323,347 323,348 323,349 323,350 323,351 323,352 323,353 323,354 323,355 323,356 323,357 323,358 323,359 323,360 323,361 324,361 324,362 324,363 324,364 324,365 324,366 324,367 324,368 324,369 324,370 324,371 324,372 324,373 324,374 324,375 324,376 324,377 324,378 324,379 324,380 325,380 325,381 325,382 325,383 325,384 325,385 325,386 325,387 325,379 325,378 325,377 325,376 325,375 325,374 325,373 325,372 325,371 325,370 324,360 324,359 324,358 324,357 324,356 324,355 324,354 324,353 324,352 324,351 324,350 324,349 324,348 324,347 324,346 324,345 323,335 300,331 299,331 298,331 297,331 296,331 295,331 294,331 " fill="none" stroke="black"/><path d="M 269,331 269,332 270,332 270,331 271,332 272,332 273,332 274,332 274,333 275,333 275,334 275,335 268,332 267,332 266,332 265,332 264,332 263,332 262,332 261,332 260,332 260,333 259,333 259,332 258,332 258,333 257,333 256,333 255,333 254,333 253,333 253,334 252,334 252,335 252,336 252,337 252,338 252,339 252,340 252,341 252,342 252,343 252,344 252,345 252,346 252,347 252,348 252,349 252,350 252,351 252,352 252,353 252,354 252,355 252,356 252,357 252,358 252,359 252,360 252,361 252,362 252,363 252,364 252,365 252,366 252,367 252,368 252,369 252,370 252,371 252,372 252,373 252,374 252,375 252,376 252,377 252,378 252,379 252,380 252,381 252,382 252,383 252,384 252,385 252,386 252,387 252,388 252,389 252,390 252,391 252,392 252,393 252,394 252,395 252,396 252,397 252,398 252,399 252,400 252,401 252,402 252,403 252,404 252,405 252,406 252,407 252,408 252,409 252,410 252,411 252,412 252,413 252,414 252,415 252,416 252,417 252,418 252,419 252,420 252,421 252,422 252,423 252,424 252,425 252,426 252,427 252,428 252,429 252,430 252,431 252,432 252,433 252,434 252,435 252,436 252,437 252,438 252,439 252,440 252,441 252,442 252,443 252,444 252,445 252,446 252,447 252,448 252,449 252,450 252,451 252,452 252,453 252,454 252,455 252,456 252,457 252,458 252,459 252,460 252,461 252,462 252,463 252,464 252,465 252,466 252,467 252,468 252,469 252,470 252,471 252,472 252,473 252,474 252,475 252,476 252,477 252,478 252,479 253,479 254,479 254,480 255,480 256,480 257,480 257,479 258,479 259,479 259,478 259,477 260,477 260,476 260,475 261,475 262,475 263,475 264,475 265,475 266,475 267,475 268,475 268,476 269,476 269,475 270,475 270,476 271,476 271,475 272,475 272,476 273,476 274,476 275,476 276,476 277,476 278,476 279,476 280,476 281,476 281,477 282,477 282,476 283,476 283,477 284,477 284,476 285,476 285,477 286,477 286,476 287,476 287,477 288,477 288,476 289,476 289,477 290,477 290,476 291,476 291,477 292,477 292,476 293,476 293,477 294,477 294,476 295,476 295,477 296,477 296,476 297,476 297,477 298,477 298,476 299,476 299,477 300,477 300,476 301,476 301,477 302,477 302,476 303,476 303,477 304,477 304,476 305,476 305,477 306,477 306,476 307,476 307,477 308,477 308,476 309,476 309,477 310,477 310,476 311,476 311,477 312,476 313,476 314,476 315,476 316,476 317,476 318,476 319,476 320,476 320,475 321,475 321,476 322,476 322,475 323,475 323,476 324,476 324,475 325,475 325,476 326,476 326,475 327,475 327,476 328,476 328,475 329,475 329,476 330,475 331,475 332,475 333,475 334,475 335,475 336,475 337,475 338,475 338,474 339,474 339,475 340,475 340,474 341,474 341,475 342,475 342,474 343,474 343,475 344,475 345,475 346,475 347,475 348,475 349,475 350,475 351,475 352,475 352,476 353,476 353,475 354,475 354,476 355,476 356,476 357,476 358,476 359,476 360,476 361,476 362,476 363,476 363,477 364,477 365,477 366,477 367,477 368,477 369,477 370,477 371,477 372,477 372,478 373,478 373,477 374,477 374,478 375,478 375,477 376,477 376,478 377,477 378,477 379,477 380,477 381,477 382,477 383,477 384,477 385,477 386,477 387,477 388,477 389,477 390,477 391,477 392,477 393,477 393,478 394,478 395,478 395,479 396,479 397,479 398,479 399,479 399,478 400,478 401,478 401,477 402,477 402,476 402,475 402,474 402,473 402,472 402,471 403,471 403,472 403,470 403,469 403,468 403,467 403,466 403,465 403,464 403,463 403,462 403,461 403,460 403,459 403,458 403,457 403,456 403,455 403,454 403,453 403,452 403,451 403,450 403,449 403,448 403,447 403,446 403,445 403,444 403,443 403,442 403,441 403,440 403,439 403,438 403,437 403,436 403,435 403,434 403,433 403,432 403,431 403,430 403,429 403,428 403,427 404,427 404,426 404,425 404,424 404,423 404,422 404,421 404,420 404,419 404,418 404,417 404,416 404,415 404,414 404,413 404,412 404,411 404,410 404,409 404,408 404,407 404,406 404,405 404,404 404,403 404,402 404,401 404,400 404,399 404,398 404,397 404,396 404,395 404,394 404,393 404,392 404,391 404,390 404,389 404,388 404,387 404,386 404,385 404,384 404,383 403,383 403,382 403,381 403,380 403,379 403,378 403,377 403,376 403,375 403,374 403,373 403,372 403,371 403,370 403,369 403,368 403,367 403,366 403,365 403,364 403,363 403,362 402,374 402,375 405,391 405,392 405,393 405,394 405,395 405,396 405,397 405,398 405,399 405,400 405,401 405,402 405,403 405,404 405,405 405,406 405,407 405,408 405,409 405,410 405,411 405,412 405,413 405,414 405,415 405,416 405,417 405,418 405,419 405,420 405,421 405,422 402,432 402,433 402,434 402,435 402,436 402,437 402,438 402,439 402,440 404,449 404,450 404,451 404,452 404,453 404,454 404,455 404,456 404,457 404,458 404,459 404,460 404,461 404,462 251,474 251,473 251,472 251,471 251,470 251,469 251,468 251,467 251,466 251,465 251,464 251,463 251,462 251,461 251,460 251,459 251,458 251,457 251,456 251,455 251,454 251,453 251,452 251,451 251,450 251,449 251,448 251,447 251,446 251,445 251,444 251,443 251,442 251,441 251,440 251,439 251,438 251,437 251,436 251,435 251,434 251,433 251,432 251,431 251,430 251,429 251,428 251,427 251,426 251,425 251,424 251,423 251,422 251,421 251,420 251,419 251,418 251,417 251,416 251,415 251,414 251,413 251,412 251,411 251,410 251,409 251,408 251,407 251,406 251,405 251,404 251,403 251,402 251,401 251,400 251,399 251,398 251,397 251,396 251,395 251,394 251,393 251,392 251,391 251,390 251,389 251,388 251,387 251,386 251,385 251,384 251,383 251,382 251,381 251,380 251,379 251,378 251,377 251,376 251,375 251,374 251,373 251,372 251,371 251,370 251,369 251,368 251,367 251,366 251,365 251,364 251,363 251,362 251,361 251,360 251,359 251,358 251,357 251,356 251,355 251,354 251,353 251,352 251,351 251,350 251,349 251,348 251,347 251,346 251,345 251,344 251,343 251,342 251,341 251,340 251,339 " fill="none" stroke="black"/><path d="M 276,336 276,337 276,338 277,338 277,339 277,340 277,337 " fill="none" stroke="black"/><path d="M 278,341 278,342 278,343 279,343 279,344 279,345 279,346 280,346 280,347 280,348 280,349 281,349 281,350 281,351 281,352 " fill="none" stroke="black"/><path d="M 287,346 287,347 287,348 " fill="none" stroke="black"/><path d="M 288,349 288,350 288,351 288,352 288,353 288,354 288,355 288,356 288,357 288,358 287,358 286,358 285,358 284,358 284,357 283,357 283,356 283,355 282,355 282,354 282,353 " fill="none" stroke="black"/><path d="M 401,354 401,355 401,356 401,357 401,358 " fill="none" stroke="black"/><path d="M 402,359 402,360 402,361 " fill="none" stroke="black"/></svg>