<svg xmlns="http://www.w3.org/2000/svg" style="background-color:white;"><path d="M 96,138 96,139 97,139 98,139 99,139 100,139 101,139 102,139 103,139 95,139 94,139 93,139 92,139 91,139 90,139 89,139 88,139 87,139 87,140 86,140 86,139 85,139 85,140 84,140 84,139 83,139 83,140 82,140 82,139 81,139 81,140 80,140 80,139 79,139 79,140 78,140 78,139 77,140 76,140 75,140 74,140 73,140 72,140 71,140 " fill="none" stroke="black"/><path d="M 122,139 123,139 124,139 125,139 126,139 127,139 128,139 128,140 128,141 128,142 128,143 128,144 128,145 128,146 128,147 128,148 127,148 127,149 127,150 127,151 126,151 126,152 126,153 126,154 125,154 125,155 125,156 125,157 125,158 125,159 125,160 124,160 124,161 124,162 124,163 124,164 124,165 124,166 " fill="none" stroke="black"/><path d="M 104,140 105,140 106,140 107,140 108,140 109,140 110,140 111,140 112,140 112,141 113,141 113,140 114,140 114,141 115,141 115,140 116,140 117,140 118,140 119,140 120,140 121,140 " fill="none" stroke="black"/><path d="M 8,141 8,142 9,142 9,141 10,141 10,142 11,142 11,141 12,141 12,142 13,142 13,141 14,141 15,141 16,141 17,141 18,141 19,141 20,141 21,141 22,141 23,141 24,141 25,141 26,141 26,142 27,142 28,142 29,142 30,142 31,142 32,142 33,142 34,142 35,142 36,142 37,142 38,142 39,142 40,142 40,141 41,141 41,142 42,142 42,141 43,141 43,142 44,142 44,141 45,141 45,142 46,142 46,141 47,142 48,142 49,142 50,142 51,142 51,143 51,144 51,145 51,146 51,147 51,148 51,149 51,150 51,151 51,152 51,153 51,154 51,155 51,156 52,147 7,142 6,142 5,142 4,142 3,142 3,143 2,143 2,144 2,145 2,146 2,147 2,148 3,148 3,149 3,150 3,151 3,152 3,153 3,154 3,155 3,156 3,157 " fill="none" stroke="black"/><path d="M 65,141 66,141 67,141 68,141 69,141 70,141 " fill="none" stroke="black"/><path d="M 61,142 61,143 61,144 62,142 63,142 64,142 " fill="none" stroke="black"/><path d="M 60,145 60,146 60,147 60,148 60,149 60,150 60,151 60,152 60,153 60,154 60,155 60,156 60,157 60,158 60,159 60,160 60,161 60,162 60,163 61,163 61,164 61,165 61,166 61,167 61,168 61,169 61,170 61,171 61,172 61,173 61,174 61,175 61,176 61,177 61,178 61,179 61,180 61,181 61,182 61,183 61,184 61,185 61,186 61,187 60,180 61,162 61,161 61,160 61,159 " fill="none" stroke="black"/><path d="M 175,149 175,150 176,150 176,149 177,150 178,150 179,150 180,150 181,150 181,151 182,151 183,151 183,152 184,152 184,153 185,153 185,154 186,154 186,155 187,155 187,156 188,156 188,157 189,157 189,158 189,159 190,159 190,160 190,161 191,161 191,162 191,163 192,163 192,164 192,165 193,165 193,166 193,167 193,168 194,168 194,169 194,170 195,170 195,171 195,172 195,173 195,174 195,175 195,176 195,177 195,178 195,179 195,180 195,181 195,182 195,183 196,177 196,176 196,175 194,167 174,150 173,150 172,150 171,150 170,150 170,151 169,151 168,151 168,152 167,152 167,153 166,153 165,153 165,154 164,154 164,155 163,155 163,156 162,156 162,157 161,157 161,158 160,158 160,159 159,159 159,160 158,160 158,161 157,161 157,162 156,162 156,163 155,163 155,164 154,164 154,165 154,166 153,166 153,167 153,168 152,168 152,169 151,169 151,170 151,171 150,171 150,172 149,172 149,173 149,174 148,174 148,175 147,175 147,176 147,177 152,167 " fill="none" stroke="black"/><path d="M 52,157 52,158 52,159 52,160 52,161 52,162 52,163 52,164 52,165 52,166 52,167 52,168 52,169 52,170 52,171 52,172 52,173 52,174 52,175 52,176 52,177 52,178 52,179 52,180 52,181 52,182 52,183 52,184 52,185 52,186 52,187 53,187 53,188 53,189 53,190 53,191 53,192 53,193 53,194 53,195 53,196 53,197 53,198 53,199 53,200 53,201 53,202 53,203 53,204 53,205 53,206 53,207 53,208 53,209 53,210 53,211 53,212 53,213 53,214 53,215 53,216 53,217 53,218 53,219 53,220 53,221 53,222 53,223 53,224 53,225 53,226 53,227 53,228 53,229 53,230 53,231 53,232 53,233 53,234 53,235 53,236 53,237 53,238 53,239 53,240 53,241 53,242 53,243 53,244 53,245 53,246 53,247 53,248 53,249 53,250 53,251 53,252 53,253 53,254 53,255 53,256 53,257 53,258 53,259 53,260 53,261 53,262 53,263 53,264 53,265 53,266 53,267 53,268 53,269 53,270 53,271 52,271 52,272 51,272 54,266 54,265 54,264 54,263 54,262 54,261 54,260 54,259 54,258 54,257 54,256 54,255 54,254 54,253 54,252 54,251 54,250 54,249 54,248 54,247 54,246 54,245 54,244 54,243 54,242 54,241 54,240 54,239 54,238 54,237 54,236 54,235 54,234 54,233 54,232 54,231 54,230 54,229 54,228 54,227 54,226 54,225 54,224 54,223 54,222 54,221 54,220 54,219 54,218 54,217 54,216 54,215 54,214 54,213 54,212 54,211 54,210 54,209 54,208 54,207 54,206 54,205 54,204 54,203 54,202 54,201 54,200 54,199 54,198 54,197 54,196 53,186 53,185 53,184 53,183 53,182 53,181 53,180 53,179 53,178 53,177 53,176 53,175 53,174 53,173 53,172 53,171 53,170 53,169 53,168 53,167 53,166 53,165 " fill="none" stroke="black"/><path d="M 2,158 2,159 2,160 2,161 2,162 2,163 2,164 2,165 2,166 2,167 2,168 2,169 2,170 2,171 2,172 2,173 2,174 2,175 2,176 2,177 2,178 2,179 2,180 2,181 2,182 2,183 2,184 2,185 2,186 2,187 2,188 2,189 2,190 2,191 2,192 2,193 2,194 2,195 2,196 2,197 2,198 2,199 2,200 2,201 2,202 2,203 2,204 2,205 2,206 2,207 2,208 2,209 2,210 2,211 2,212 2,213 2,214 2,215 2,216 2,217 2,218 2,219 2,220 2,221 2,222 2,223 2,224 2,225 2,226 2,227 2,228 2,229 2,230 2,231 2,232 2,233 2,234 2,235 2,236 2,237 2,238 2,239 2,240 3,240 3,241 3,242 3,243 3,244 3,245 3,246 3,247 3,248 3,249 3,250 3,251 3,252 3,253 3,254 3,255 3,256 3,257 3,258 3,259 3,260 3,261 3,262 2,255 2,254 2,253 3,239 1,234 1,233 1,232 1,231 1,230 1,229 1,228 1,227 1,226 1,225 1,224 1,223 1,222 1,221 1,220 1,219 1,218 1,217 1,216 1,215 1,214 1,213 1,212 1,211 1,210 1,209 1,208 1,207 1,206 1,205 1,204 1,203 1,202 1,201 1,200 1,199 1,198 1,197 1,196 3,187 3,186 3,185 3,184 3,183 3,182 3,181 3,180 3,179 1,170 1,169 1,168 1,167 1,166 " fill="none" stroke="black"/><path d="M 265,159 265,160 266,160 266,159 267,160 268,160 269,160 270,160 271,160 272,160 264,160 263,160 262,160 261,160 260,160 259,160 259,161 258,161 257,161 " fill="none" stroke="black"/><path d="M 273,161 274,161 275,161 275,162 276,162 277,162 277,163 278,163 279,163 279,164 280,164 281,164 281,165 282,165 282,166 282,167 283,167 283,168 283,169 " fill="none" stroke="black"/><path d="M 254,162 254,163 253,163 252,163 252,164 251,164 251,165 250,165 249,165 249,166 248,166 248,167 247,167 247,168 246,168 246,167 245,168 245,169 244,169 244,170 243,170 243,171 242,171 242,172 241,172 241,173 241,174 240,174 240,175 239,175 239,176 239,177 238,177 238,178 237,178 237,179 237,180 255,162 256,162 " fill="none" stroke="black"/><path d="M 123,167 123,168 123,169 123,170 123,171 122,171 122,172 122,173 122,174 " fill="none" stroke="black"/><path d="M 284,170 284,171 284,172 284,173 284,174 284,175 284,176 284,177 284,178 284,179 284,180 284,181 284,182 285,177 285,176 285,175 " fill="none" stroke="black"/><path d="M 121,175 121,176 121,177 120,177 120,178 120,179 120,180 120,181 120,182 120,183 120,184 119,184 119,185 119,186 119,187 119,188 119,189 119,190 118,190 118,191 118,192 118,193 117,193 117,194 117,195 117,196 116,196 116,197 116,198 119,183 " fill="none" stroke="black"/><path d="M 146,178 146,179 146,180 145,180 145,181 145,182 145,183 145,184 145,185 145,186 145,187 145,188 145,189 145,190 145,191 145,192 144,187 144,186 " fill="none" stroke="black"/><path d="M 236,181 236,182 236,183 236,184 236,185 236,186 236,187 236,188 236,189 236,190 236,191 " fill="none" stroke="black"/><path d="M 283,183 283,184 283,185 282,185 282,186 282,187 281,187 281,188 280,188 280,189 279,189 279,190 278,190 278,191 277,191 277,192 276,192 276,193 275,193 274,193 274,194 273,194 272,194 272,195 271,195 270,195 270,196 269,196 268,196 " fill="none" stroke="black"/><path d="M 194,184 194,185 194,186 193,186 193,187 192,187 192,188 192,189 191,189 191,190 190,190 190,191 189,191 189,192 188,192 188,193 187,193 187,194 187,195 186,195 186,196 185,196 185,197 184,197 184,198 183,198 183,199 182,199 181,199 181,200 180,200 180,201 179,201 178,201 178,202 177,202 176,202 176,203 175,203 174,203 186,194 191,188 " fill="none" stroke="black"/><path d="M 62,188 62,189 62,190 62,191 " fill="none" stroke="black"/><path d="M 63,192 63,193 63,194 64,194 64,195 64,196 65,196 65,197 66,197 66,198 66,199 67,199 67,200 67,201 68,201 68,202 69,202 69,203 69,204 70,204 70,205 70,206 71,206 71,207 72,207 72,208 72,209 73,209 73,210 74,210 74,211 75,211 75,212 76,212 76,213 77,213 77,212 78,213 78,214 79,214 79,215 80,215 80,216 81,216 81,217 82,217 82,218 83,218 83,219 84,219 84,220 85,220 85,219 86,220 86,221 87,221 87,222 88,222 88,223 89,223 90,223 90,224 91,224 91,225 92,225 93,225 93,226 94,226 95,226 95,227 96,227 97,227 " fill="none" stroke="black"/><path d="M 237,192 237,193 237,194 238,194 238,195 239,195 239,196 240,196 240,197 241,197 241,198 242,198 243,198 243,199 244,199 245,199 245,200 246,200 247,200 248,200 249,200 250,200 250,201 251,201 251,200 252,200 252,201 253,201 253,200 254,200 254,201 255,200 256,200 257,200 258,200 259,200 260,200 260,199 261,199 262,199 " fill="none" stroke="black"/><path d="M 146,193 146,194 146,195 147,195 147,196 147,197 148,197 148,198 149,198 149,199 150,199 151,199 151,200 152,200 153,200 " fill="none" stroke="black"/><path d="M 265,197 265,198 266,198 266,197 267,197 264,198 263,198 " fill="none" stroke="black"/><path d="M 115,199 115,200 115,201 114,201 114,202 114,203 114,204 113,204 113,205 113,206 112,206 112,207 112,208 111,208 111,209 111,210 111,211 110,211 110,212 110,213 109,213 109,214 109,215 110,210 " fill="none" stroke="black"/><path d="M 154,201 155,201 156,201 157,201 157,202 158,202 159,202 160,202 160,203 161,203 162,203 163,203 163,204 164,204 165,204 166,204 167,204 168,204 169,204 170,204 171,204 172,204 173,204 " fill="none" stroke="black"/><path d="M 61,211 61,212 60,212 60,213 60,214 60,215 60,216 60,217 60,218 60,219 60,220 60,221 60,222 60,223 60,224 60,225 60,226 60,227 60,228 60,229 60,230 60,231 60,232 60,233 60,234 60,235 60,236 60,237 60,238 60,239 60,240 60,241 60,242 60,243 60,244 60,245 60,246 60,247 60,248 60,249 60,250 60,251 60,252 60,253 60,254 60,255 60,256 60,257 60,258 60,259 60,260 60,261 60,262 60,263 60,264 61,264 61,265 61,266 61,267 61,268 61,269 62,269 63,269 64,269 65,269 61,263 61,262 61,261 61,260 61,259 61,258 61,257 61,256 61,255 61,254 61,253 61,252 61,251 61,250 61,249 61,248 61,247 61,246 61,245 61,244 61,243 61,242 61,241 61,240 61,239 61,238 61,237 61,236 61,235 61,234 61,233 61,232 61,231 61,230 61,229 61,228 61,227 61,226 61,225 61,224 61,223 61,222 61,221 61,220 61,219 61,218 62,211 63,211 63,212 64,212 64,213 65,213 65,214 66,214 66,215 67,215 67,216 68,216 68,217 69,217 69,218 70,218 70,219 71,219 71,220 72,220 72,221 73,221 73,222 74,222 74,221 75,222 75,223 76,223 76,224 77,224 77,225 78,225 78,226 79,226 79,227 80,227 80,228 81,228 81,229 82,229 82,228 83,229 83,230 84,230 84,231 85,231 86,231 86,232 87,232 87,233 88,233 89,233 89,234 90,234 91,234 91,235 92,235 " fill="none" stroke="black"/><path d="M 108,216 108,217 " fill="none" stroke="black"/><path d="M 107,218 107,219 107,220 106,220 106,221 106,222 106,223 105,223 105,224 104,224 104,225 104,226 103,226 103,227 103,228 102,228 105,222 " fill="none" stroke="black"/><path d="M 139,227 140,227 141,227 142,227 143,227 144,227 " fill="none" stroke="black"/><path d="M 98,228 99,228 100,228 " fill="none" stroke="black"/><path d="M 135,228 135,229 134,229 133,229 133,230 132,230 131,230 131,231 130,231 129,231 129,232 128,232 128,233 127,233 126,233 126,234 125,234 125,235 124,235 124,236 123,236 123,237 122,237 122,238 121,238 121,237 120,238 120,239 119,239 119,240 118,240 118,241 117,241 117,242 116,242 116,243 115,243 115,244 114,244 114,245 113,245 113,246 112,246 112,247 112,248 111,248 111,249 110,249 110,250 110,251 109,251 109,252 109,253 108,253 108,254 108,255 108,256 107,256 107,257 107,258 106,258 106,259 106,260 105,260 105,261 105,262 105,263 107,255 136,228 137,228 138,228 " fill="none" stroke="black"/><path d="M 145,228 146,228 147,228 147,229 148,229 148,230 149,230 149,231 150,231 150,232 150,233 151,233 151,234 151,235 152,235 152,236 152,237 152,238 152,239 152,240 152,241 152,242 151,242 151,243 151,244 151,245 151,246 151,247 150,247 150,248 150,249 150,250 149,250 149,251 149,252 " fill="none" stroke="black"/><path d="M 101,229 " fill="none" stroke="black"/><path d="M 93,236 94,236 95,236 95,237 95,238 95,239 95,240 95,241 94,241 94,242 94,243 93,243 93,244 92,244 92,245 92,246 91,246 91,247 90,247 90,248 89,248 89,249 89,250 88,250 88,251 87,251 87,252 87,253 86,253 86,254 85,254 85,255 85,256 84,256 84,257 84,258 83,258 83,259 83,260 82,260 82,261 81,261 81,262 80,262 80,263 79,263 78,263 78,264 77,264 77,265 76,265 75,265 75,266 74,266 91,245 " fill="none" stroke="black"/><path d="M 148,253 148,254 148,255 147,255 147,256 147,257 146,257 146,258 145,258 145,259 145,260 144,260 144,261 144,262 143,262 143,263 143,264 142,264 142,265 142,266 141,266 141,267 140,267 140,268 140,269 139,269 139,270 139,271 138,271 138,272 137,272 137,273 137,274 136,274 136,275 135,275 135,276 134,276 134,277 133,277 133,278 132,278 132,279 131,279 131,280 130,280 130,281 129,281 129,282 128,282 128,283 127,283 126,283 126,284 125,284 124,284 124,285 123,285 122,285 122,286 121,286 120,286 119,286 118,286 117,286 117,287 116,287 116,286 115,286 114,286 113,286 112,286 111,286 111,285 110,285 109,285 109,284 108,284 107,284 107,283 106,283 106,282 105,282 105,281 105,280 104,280 104,279 104,278 103,278 103,277 103,276 103,275 103,274 103,273 103,272 103,271 103,270 103,269 103,268 141,265 " fill="none" stroke="black"/><path d="M 2,263 2,264 2,265 2,266 2,267 2,268 2,269 1,269 1,270 1,271 1,272 1,273 1,274 1,275 1,276 1,277 2,277 3,277 " fill="none" stroke="black"/><path d="M 104,264 104,265 104,266 104,267 " fill="none" stroke="black"/><path d="M 70,267 71,267 72,267 73,267 " fill="none" stroke="black"/><path d="M 66,268 67,268 68,268 69,268 " fill="none" stroke="black"/><path d="M 47,273 47,274 46,274 45,274 44,274 44,275 43,275 42,275 41,275 41,276 40,276 39,276 38,276 37,276 36,276 35,276 34,276 33,276 32,276 31,276 30,276 29,276 28,276 27,276 27,277 26,277 25,277 24,277 23,277 22,277 48,273 49,273 50,273 " fill="none" stroke="black"/><path d="M 4,278 5,278 6,278 " fill="none" stroke="black"/><path d="M 13,278 13,279 14,279 14,278 15,278 16,278 17,278 18,278 19,278 20,278 21,278 12,279 11,279 10,279 9,279 8,279 7,279 " fill="none" stroke="black"/></svg>