<svg xmlns="http://www.w3.org/2000/svg" style="background-color:white;"><path d="M 186,448 187,448 188,448 189,448 190,448 191,448 192,448 193,448 194,448 195,448 196,448 196,449 197,449 198,449 198,450 199,450 199,451 200,451 200,452 200,453 200,454 200,455 200,456 200,457 200,458 200,459 200,460 200,461 200,462 200,463 200,464 200,465 200,466 200,467 200,468 200,469 200,470 200,471 200,472 " fill="none" stroke="black"/><path d="M 169,449 169,450 168,450 168,451 167,451 167,452 166,452 166,453 165,453 165,454 165,455 165,456 165,457 165,458 165,459 165,460 165,461 165,462 165,463 165,464 165,465 165,466 165,467 165,468 165,469 165,470 165,471 165,472 166,472 166,473 167,473 167,474 168,474 169,474 164,466 164,465 164,464 164,463 164,462 164,461 164,460 164,459 164,458 170,449 171,449 172,449 173,449 174,449 175,449 175,450 176,450 177,450 178,450 179,450 180,450 180,449 181,449 182,449 183,449 184,449 185,449 " fill="none" stroke="black"/><path d="M 199,473 199,474 199,475 198,475 198,476 197,476 196,476 195,476 194,476 193,476 192,476 191,476 190,476 189,476 188,476 187,476 186,476 185,476 184,476 183,476 182,476 181,476 180,476 179,476 178,476 177,476 176,476 175,476 174,476 173,476 172,476 172,475 171,475 170,475 " fill="none" stroke="black"/></svg>